<svg width="342" height="333" viewBox="0 0 342 333" xmlns="http://www.w3.org/2000/svg">
    <g transform="translate(-35 -40)" fill="none" fill-rule="evenodd">
        <circle stroke="#979797" fill="#FFF" cx="206.5" cy="206.5" r="152.5"/>

            <path d="M213.05 369c-4.247 0-8.513-.16-12.8-.48a165.25 165.25 0 01-92.89-37C54.26 288 33.77 212.58 57.54 148.2 81.31 83.82 143.47 40.3 212.2 40h.05c8.686.06 17.356.756 25.94 2.08 66.31 10.17 121.93 63.32 135.28 129.25 13.574 68.198-16.698 137.645-75.9 174.12A161.926 161.926 0 01213.05 369zm-.83-318c-64.409.473-121.84 40.654-144.36 101-22.17 60.07-3.06 130.39 46.48 171a154.21 154.21 0 0086.73 34.51c64.989 5.235 126.052-31.65 151.66-91.61a154 154 0 0010-92.39C350.24 112 298.36 62.44 236.52 53a165.69 165.69 0 00-24.3-2z"
                  fill="#D92585" fill-rule="nonzero"/>
            <path d="M201.14 371.1a173.5 173.5 0 01-12.86-.48 166 166 0 01-93.35-37.16C41.56 289.7 21 213.94 44.86 149.24 68.72 84.54 131.22 40.8 200.29 40.5c8.733.058 17.45.76 26.08 2.1C293 52.81 348.94 106.22 362.35 172.48c13.67 68.545-16.76 138.358-76.28 175a162.54 162.54 0 01-84.93 23.62zm-.83-320.6C135.4 50.79 76.7 91.86 54.24 152.7c-22.46 60.84-3.09 131.92 47 173A156 156 0 00189 360.64c65.759 5.299 127.545-32.027 153.45-92.7a155.8 155.8 0 0010.07-93.48C340 112.24 287.46 62.08 224.89 52.48a168.23 168.23 0 00-24.58-1.98z"
                  fill="#75F272" fill-rule="nonzero"/>
            <path d="M207 372.09c-4.27 0-8.57-.16-12.87-.48a166.22 166.22 0 01-93.44-37.19C47.3 290.61 26.69 214.77 50.6 150 74.51 85.23 137 41.46 206.17 41.15h.06a178.94 178.94 0 0126.09 2.1C299 53.48 355 107 368.42 173.27c13.66 68.608-16.797 138.474-76.36 175.16A162.839 162.839 0 01207 372.09zm-.8-317.94c-63.988.472-121.043 40.396-143.41 100.35C40.77 214.16 59.76 284 109 324.37a153.29 153.29 0 0086.17 34.28c64.555 5.194 125.208-31.443 150.65-91a153 153 0 009.89-91.79c-12.4-61.1-63.94-110.34-125.36-119.76a165 165 0 00-24.15-1.95z"
                  fill="#2D2D2D" fill-rule="nonzero"/>
        <g class="heart">
            <path fill="#C92C32" fill-rule="nonzero"
                  d="M206.8 312.18h7.2v-14.26h14.2v-14.16h14.25v-14.31h14.21v-14.22H271V241h14.15v-14.23h14.31v-14.31h14.12v-56.28h-14.2V141.9h-14.33v-14H229V142h-14.36v14.07h-7.84"/>
            <path fill="#F0353B" fill-rule="nonzero"
                  d="M206.8 156.11h-6.32V142h-14.33v-14.1h-57.71V142H114.2v14.22H100v56.37h14.29v14.23h14.16v14.23h14.3v14.24H157v14.3h14.2v14.24h14.3v14.22h14.23v14.11h7.07"/>
            <path fill="#FFF" fill-rule="nonzero"
                  d="M253.15 186.76v10.52h12.73V163.7h7.31v40.53h-27.83v-17.47zM278.84 187.26V163.7h27.83v6.94h-20v10h20v23.57h-27.83v-6.95h20.52v-10z"/>
            <path fill="#D92585" fill-rule="nonzero"
                  d="M213.58 312.18h7.21v-14.26H235v-14.16h14.25v-14.31h14.2v-14.22h14.32V241h14.15v-14.23h14.31v-14.31h14.11v-56.28h-14.19V141.9h-14.33v-14h-56.09V142h-14.32v14.07h-7.83"/>
            <path fill="#75F272" fill-rule="nonzero"
                  d="M206 312.18h7.22v-14.26h14.2v-14.16h14.25v-14.31h14.21v-14.22h14.31V241h14.15v-14.23h14.31v-14.31h14.12v-56.28h-14.2V141.9h-14.35v-14h-56.09V142h-14.32v14.07H206M206 156.11h-6.32V142h-14.36v-14.1h-57.71V142h-14.24v14.22H99.21v56.37h14.25v14.23h14.16v14.23h14.3v14.24h14.23v14.3h14.22v14.24h14.3v14.22h14.23v14.11h7.1"/>
            <path fill="#C92C32" fill-rule="nonzero"
                  d="M302.52 156.18V141.9h-14.33v-14H232.1V142h-14.31v14.07H205v156.11h12.21v-14.26h14.21v-14.16h14.25v-14.31h14.21v-14.22h14.31V241h14.15v-14.23h14.26v-14.31h14.12v-56.28z"/>
            <path fill="#F0353B" fill-rule="nonzero"
                  d="M210 156.11h-6.33V142H189.3v-14.1h-57.71V142h-14.24v14.22h-14.16v56.37h14.25v14.23h14.16v14.23h14.3v14.24h14.23v14.3h14.22v14.24h14.3v14.22h14.23v14.11H210z"/>
            <path fill="#FFF" fill-rule="nonzero"
                  d="M255.47 186.76v10.52h12.73V163.7h7.31v40.53h-27.83v-17.47zM281.15 187.26V163.7H309v6.94h-20v10h20v23.57h-27.85v-6.95h20.52v-10z"/>
        </g>
    </g>
</svg>
