<svg xmlns="http://www.w3.org/2000/svg" width="72" height="60" viewBox="0 0 72 60"><g id="Layer_2" data-name="Layer 2"><g id="Layer_1-2" data-name="Layer 1"><path d="M20.7,9.16c6.42-.69,10.2.05,11.32.6,0,0-7.64-6.56-14.41-5.62,0,0,4.76-3.51,16.22,4.35,0,0-10.08-17.71-26.15-2C7.69,6.53,14.08,9.86,20.7,9.16ZM45.21,6.09h.07c.31-.08.44-.62.29-1.2s-.49-1-.8-.92A10.55,10.55,0,0,0,35.91,11C38.38,8.19,41.34,6.14,45.21,6.09Zm23,15.32a10.74,10.74,0,0,1,2.66,2.8A6.89,6.89,0,0,1,72,28.16a6.4,6.4,0,0,1-.14,1.07,4.77,4.77,0,0,1-.13.51c0,.05,0,.09,0,.14s-.07.25-.12.37a7.31,7.31,0,0,1-.43.95l-.25.45a1.78,1.78,0,0,1-.17.27l-.11.16a13.28,13.28,0,0,1-2.7,2.9,23.34,23.34,0,0,1-3.17,2.12c-1.1.61-2.24,1.16-3.38,1.65A36,36,0,0,1,57.89,40l-1.27.39c.3,1.15.56,2.31.78,3.49A32.71,32.71,0,0,1,58,49a21,21,0,0,1-.11,2.63,9.27,9.27,0,0,1-.14,1c0,.09,0,.19-.05.29s0,.25-.08.38a2.47,2.47,0,0,0-.06.29c0,.22-.11.44-.18.65a9.06,9.06,0,0,1-1.08,2.61,6.76,6.76,0,0,1-5,3,9.28,9.28,0,0,1-2.88-.12,4.6,4.6,0,0,1-.72-.14l-.28-.07L47,59.5c-.44-.13-.87-.27-1.29-.44a22.5,22.5,0,0,1-2.44-1.14A31.15,31.15,0,0,1,38.87,55c-1-.74-1.92-1.53-2.83-2.36-.91.82-1.85,1.63-2.81,2.36a32.7,32.7,0,0,1-4.4,2.89,21.65,21.65,0,0,1-2.44,1.14c-.34.14-.7.26-1.05.37l-.24.07a4.1,4.1,0,0,1-.5.14l-.17,0-.69.15a9.28,9.28,0,0,1-2.88.12,6.81,6.81,0,0,1-5-3,8.64,8.64,0,0,1-1.18-2.56,3.57,3.57,0,0,1-.18-.66c0-.07,0-.15-.07-.23a1.65,1.65,0,0,1-.09-.43l-.06-.37a5.25,5.25,0,0,1-.12-1,19.22,19.22,0,0,1-.11-2.63,31.81,31.81,0,0,1,.55-5.15c.21-1.15.47-2.31.77-3.46l-1-.32c-1.19-.37-2.35-.8-3.5-1.27a36.44,36.44,0,0,1-3.4-1.62,25.81,25.81,0,0,1-3.19-2.1,13.87,13.87,0,0,1-2.74-2.83A7.86,7.86,0,0,1,1,31.45c0-.07-.07-.13-.1-.19L.7,31l-.2-.48a7,7,0,0,1-.32-1A3.1,3.1,0,0,1,.08,29,3.07,3.07,0,0,1,0,28.44a7,7,0,0,1,1-4,10.83,10.83,0,0,1,2.62-2.9L4,21.25,4.38,21l.28-.19a5.25,5.25,0,0,1,.49-.33,5.3,5.3,0,0,0,.47-.28L6,20l.82-.42a32.05,32.05,0,0,1,6.84-2.44l-.44.19c-1,.42-1.91.83-2.83,1.32a27.73,27.73,0,0,0-3.09,1.77,18.6,18.6,0,0,0-2.74,2.18,9.13,9.13,0,0,0-2,2.65,5,5,0,0,0-.49,3,5.85,5.85,0,0,0,1.3,2.71,12,12,0,0,0,2.43,2.17,21.84,21.84,0,0,0,2.93,1.69,40.38,40.38,0,0,0,6.49,2.39l1.07.28c.36-1.1.74-2.19,1.15-3.28a18.29,18.29,0,0,1-1-5.92c0-16.4,13-18.17,17.29-17A19,19,0,0,0,28.88,17a18.8,18.8,0,0,0-2.24,7.14A20,20,0,0,0,30.72,39a20.14,20.14,0,0,1-2.79-13c.82-6.56,4.22-12.91,10-14.64,4.47-1.34,17.76-.05,17.76,16.92a18.09,18.09,0,0,1-1,6c.38,1,.76,2.1,1.1,3.17L57,37.07a39.08,39.08,0,0,0,6.48-2.41,23.05,23.05,0,0,0,2.92-1.72,11.69,11.69,0,0,0,2.38-2.17A5.39,5.39,0,0,0,70,28a5.08,5.08,0,0,0-.57-3,9.34,9.34,0,0,0-2.05-2.62,20.75,20.75,0,0,0-2.77-2.18,30.34,30.34,0,0,0-3.11-1.72c-1-.5-2-.93-3-1.36l-.31-.14a33.35,33.35,0,0,1,6.85,2.4A17.68,17.68,0,0,1,68.24,21.41ZM52.78,38.09c.64-.13,1.27-.28,1.9-.43-.18-.69-.38-1.39-.58-2.1A23.34,23.34,0,0,1,52.78,38.09Zm-33.52,0a19.7,19.7,0,0,1-1.34-2.63c-.23.72-.43,1.45-.62,2.2C18,37.85,18.61,38,19.26,38.12Zm8.08,17.22a28.49,28.49,0,0,0,3.81-2.86h0a29.42,29.42,0,0,0,2.35-2.25A35.65,35.65,0,0,1,22.19,42a6,6,0,0,1-.72-.13c-1.64-.29-3.28-.67-4.9-1.11-.22,1.1-.4,2.22-.54,3.33a32.05,32.05,0,0,0-.25,4.9A23.88,23.88,0,0,0,16,51.41c.05.33.12.64.19,1,0,.06,0,.13.05.2l.09.33c0,.07,0,.15.07.23s.11.36.18.54a5.81,5.81,0,0,0,2.54,3.26,5.56,5.56,0,0,0,4,.27,3.18,3.18,0,0,0,.53-.14L24,57l.28-.09.38-.16c.22-.09.46-.18.67-.29A17.68,17.68,0,0,0,27.34,55.34ZM56.2,49A31,31,0,0,0,56,44.13h0c-.15-1.12-.33-2.25-.54-3.37-1.54.43-3.11.78-4.68,1.08l-.9.17a36.09,36.09,0,0,1-11.23,8.08l-.15.14c.77.78,1.56,1.52,2.37,2.23a29.87,29.87,0,0,0,3.83,2.9,17.54,17.54,0,0,0,2.05,1.1c.24.12.48.21.73.31l.33.13L48,57l.26.08a5.26,5.26,0,0,0,.53.15,5.08,5.08,0,0,0,4.06-.31,4.92,4.92,0,0,0,1.59-1.35,5,5,0,0,0,.92-1.88,4.27,4.27,0,0,0,.18-.54,2,2,0,0,1,.07-.23c0-.11.06-.21.09-.33l0-.18c.07-.32.15-.65.19-1A19.35,19.35,0,0,0,56.2,49ZM20.7,9.16c6.42-.69,10.2.05,11.32.6,0,0-7.64-6.56-14.41-5.62,0,0,4.76-3.51,16.22,4.35,0,0-10.08-17.71-26.15-2C7.69,6.53,14.08,9.86,20.7,9.16ZM45.21,6.09h.07c.31-.08.44-.62.29-1.2s-.49-1-.8-.92A10.55,10.55,0,0,0,35.91,11C38.38,8.19,41.34,6.14,45.21,6.09Zm23,15.32a10.74,10.74,0,0,1,2.66,2.8A6.89,6.89,0,0,1,72,28.16a6.4,6.4,0,0,1-.14,1.07,4.77,4.77,0,0,1-.13.51c0,.05,0,.09,0,.14s-.07.25-.12.37a7.31,7.31,0,0,1-.43.95l-.25.45a1.78,1.78,0,0,1-.17.27l-.11.16a13.28,13.28,0,0,1-2.7,2.9,23.34,23.34,0,0,1-3.17,2.12c-1.1.61-2.24,1.16-3.38,1.65A36,36,0,0,1,57.89,40l-1.27.39c.3,1.15.56,2.31.78,3.49A32.71,32.71,0,0,1,58,49a21,21,0,0,1-.11,2.63,9.27,9.27,0,0,1-.14,1c0,.09,0,.19-.05.29s0,.25-.08.38a2.47,2.47,0,0,0-.06.29c0,.22-.11.44-.18.65a9.06,9.06,0,0,1-1.08,2.61,6.76,6.76,0,0,1-5,3,9.28,9.28,0,0,1-2.88-.12,4.6,4.6,0,0,1-.72-.14l-.28-.07L47,59.5c-.44-.13-.87-.27-1.29-.44a22.5,22.5,0,0,1-2.44-1.14A31.15,31.15,0,0,1,38.87,55c-1-.74-1.92-1.53-2.83-2.36-.91.82-1.85,1.63-2.81,2.36a32.7,32.7,0,0,1-4.4,2.89,21.65,21.65,0,0,1-2.44,1.14c-.34.14-.7.26-1.05.37l-.24.07a4.1,4.1,0,0,1-.5.14l-.17,0-.69.15a9.28,9.28,0,0,1-2.88.12,6.81,6.81,0,0,1-5-3,8.64,8.64,0,0,1-1.18-2.56,3.57,3.57,0,0,1-.18-.66c0-.07,0-.15-.07-.23a1.65,1.65,0,0,1-.09-.43l-.06-.37a5.25,5.25,0,0,1-.12-1,19.22,19.22,0,0,1-.11-2.63,31.81,31.81,0,0,1,.55-5.15c.21-1.15.47-2.31.77-3.46l-1-.32c-1.19-.37-2.35-.8-3.5-1.27a36.44,36.44,0,0,1-3.4-1.62,25.81,25.81,0,0,1-3.19-2.1,13.87,13.87,0,0,1-2.74-2.83A7.86,7.86,0,0,1,1,31.45c0-.07-.07-.13-.1-.19L.7,31l-.2-.48a7,7,0,0,1-.32-1A3.1,3.1,0,0,1,.08,29,3.07,3.07,0,0,1,0,28.44a7,7,0,0,1,1-4,10.83,10.83,0,0,1,2.62-2.9L4,21.25,4.38,21l.28-.19a5.25,5.25,0,0,1,.49-.33,5.3,5.3,0,0,0,.47-.28L6,20l.82-.42a32.05,32.05,0,0,1,6.84-2.44l-.44.19c-1,.42-1.91.83-2.83,1.32a27.73,27.73,0,0,0-3.09,1.77,18.6,18.6,0,0,0-2.74,2.18,9.13,9.13,0,0,0-2,2.65,5,5,0,0,0-.49,3,5.85,5.85,0,0,0,1.3,2.71,12,12,0,0,0,2.43,2.17,21.84,21.84,0,0,0,2.93,1.69,40.38,40.38,0,0,0,6.49,2.39l1.07.28c.36-1.1.74-2.19,1.15-3.28a18.29,18.29,0,0,1-1-5.92c0-16.4,13-18.17,17.29-17A19,19,0,0,0,28.88,17a18.8,18.8,0,0,0-2.24,7.14A20,20,0,0,0,30.72,39a20.14,20.14,0,0,1-2.79-13c.82-6.56,4.22-12.91,10-14.64,4.47-1.34,17.76-.05,17.76,16.92a18.09,18.09,0,0,1-1,6c.38,1,.76,2.1,1.1,3.17L57,37.07a39.08,39.08,0,0,0,6.48-2.41,23.05,23.05,0,0,0,2.92-1.72,11.69,11.69,0,0,0,2.38-2.17A5.39,5.39,0,0,0,70,28a5.08,5.08,0,0,0-.57-3,9.34,9.34,0,0,0-2.05-2.62,20.75,20.75,0,0,0-2.77-2.18,30.34,30.34,0,0,0-3.11-1.72c-1-.5-2-.93-3-1.36l-.31-.14a33.35,33.35,0,0,1,6.85,2.4A17.68,17.68,0,0,1,68.24,21.41ZM52.78,38.09c.64-.13,1.27-.28,1.9-.43-.18-.69-.38-1.39-.58-2.1A23.34,23.34,0,0,1,52.78,38.09Zm-33.52,0a19.7,19.7,0,0,1-1.34-2.63c-.23.72-.43,1.45-.62,2.2C18,37.85,18.61,38,19.26,38.12Zm8.08,17.22a28.49,28.49,0,0,0,3.81-2.86h0a29.42,29.42,0,0,0,2.35-2.25A35.65,35.65,0,0,1,22.19,42a6,6,0,0,1-.72-.13c-1.64-.29-3.28-.67-4.9-1.11-.22,1.1-.4,2.22-.54,3.33a32.05,32.05,0,0,0-.25,4.9A23.88,23.88,0,0,0,16,51.41c.05.33.12.64.19,1,0,.06,0,.13.05.2l.09.33c0,.07,0,.15.07.23s.11.36.18.54a5.81,5.81,0,0,0,2.54,3.26,5.56,5.56,0,0,0,4,.27,3.18,3.18,0,0,0,.53-.14L24,57l.28-.09.38-.16c.22-.09.46-.18.67-.29A17.68,17.68,0,0,0,27.34,55.34ZM56.2,49A31,31,0,0,0,56,44.13h0c-.15-1.12-.33-2.25-.54-3.37-1.54.43-3.11.78-4.68,1.08l-.9.17a36.09,36.09,0,0,1-11.23,8.08l-.15.14c.77.78,1.56,1.52,2.37,2.23a29.87,29.87,0,0,0,3.83,2.9,17.54,17.54,0,0,0,2.05,1.1c.24.12.48.21.73.31l.33.13L48,57l.26.08a5.26,5.26,0,0,0,.53.15,5.08,5.08,0,0,0,4.06-.31,4.92,4.92,0,0,0,1.59-1.35,5,5,0,0,0,.92-1.88,4.27,4.27,0,0,0,.18-.54,2,2,0,0,1,.07-.23c0-.11.06-.21.09-.33l0-.18c.07-.32.15-.65.19-1A19.35,19.35,0,0,0,56.2,49Z" fill="#fff"/></g></g></svg>