<svg width="20" height="20" viewBox="0 0 20 20" fill="none" xmlns="http://www.w3.org/2000/svg">
<path fill="currentColor" fill-rule="evenodd" clip-rule="evenodd" d="M10.7454 0.460833C10.9513 0.872478 10.7844 1.37303 10.3728 1.57885L2.69688 5.41679L10.0001 9.06836L17.2316 5.45261L14.5834 4.24885L10.3449 6.17542C9.92594 6.36587 9.43186 6.18061 9.24144 5.76163C9.05103 5.34265 9.23628 4.84861 9.65527 4.65816L14.2386 2.57485C14.4576 2.47526 14.7091 2.47526 14.9282 2.57485L19.5115 4.65816C19.8039 4.79108 19.9939 5.08022 19.9998 5.40137C20.0058 5.72252 19.8266 6.01849 19.5393 6.16214L10.3728 10.7454C10.1382 10.8628 9.86202 10.8628 9.62744 10.7454L0.460833 6.16214C0.178516 6.02098 0.000182635 5.73244 0.000182635 5.41679C0.000182635 5.10115 0.178516 4.8126 0.460833 4.67145L9.62744 0.0881593C10.039 -0.117664 10.5396 0.0491887 10.7454 0.460833ZM0.0881593 9.62744C0.293981 9.21578 0.794537 9.04894 1.20618 9.25469L10.0001 13.6516L18.794 9.25469C19.2056 9.04894 19.7062 9.21578 19.912 9.62744C20.1178 10.039 19.951 10.5396 19.5393 10.7454L10.3728 15.3287C10.1382 15.446 9.86202 15.446 9.62744 15.3287L0.460833 10.7454C0.0491887 10.5396 -0.117664 10.039 0.0881593 9.62744ZM0.0881593 14.2107C0.293981 13.7991 0.794537 13.6322 1.20618 13.838L10.0001 18.2349L18.794 13.838C19.2056 13.6322 19.7062 13.7991 19.912 14.2107C20.1178 14.6223 19.951 15.1229 19.5393 15.3287L10.3728 19.912C10.1382 20.0293 9.86202 20.0293 9.62744 19.912L0.460833 15.3287C0.0491887 15.1229 -0.117664 14.6223 0.0881593 14.2107Z"/>
</svg>
