<svg version="1.1" id="Layer_3" xmlns="http://www.w3.org/2000/svg" xmlns:xlink="http://www.w3.org/1999/xlink" x="0" y="0" width="392.4" height="343.1" xml:space="preserve"><style>.st2{fill:#3a4750}</style><defs><path id="SVGID_1_" d="M86 31.1 8.2 53.9 63 161.2s3.4 7.2 18.1 7.2c19.6.4 84.1-26.5 84.1-26.5s-73.8 25.5-89.7 16.9-51.8-89.5-51-96.7c2.6-5.4 61.5-31 61.5-31"/></defs><clipPath id="SVGID_2_"><use xlink:href="#SVGID_1_" overflow="visible"/></clipPath><g clip-path="url(#SVGID_2_)"><defs><path id="SVGID_3_" d="M-5.4-23.3h800v800h-800z"/></defs><clipPath id="SVGID_4_"><use xlink:href="#SVGID_3_" overflow="visible"/></clipPath><g clip-path="url(#SVGID_4_)"><path class="st2" d="M0 22.9h173.3v153.7H0V22.9z"/></g></g><defs><path id="SVGID_5_" d="m44.1 94.9 29.3 54.4s3.7 4.3 13.7 4.3 31.2-2.8 45.1-7.5 42.4-20.2 45.7-25.8-20.3-107.2-20.3-107.2l-11.9 10s7.7 59.4 6.1 71.2-3.2 15.5-27.6 24.3-36 10-43.4 7.5-36.7-31.2-36.7-31.2"/></defs><clipPath id="SVGID_6_"><use xlink:href="#SVGID_5_" overflow="visible"/></clipPath><g clip-path="url(#SVGID_6_)"><defs><path id="SVGID_7_" d="M-5.4-23.3h800v800h-800z"/></defs><clipPath id="SVGID_8_"><use xlink:href="#SVGID_7_" overflow="visible"/></clipPath><g clip-path="url(#SVGID_8_)"><path class="st2" d="M36 4.9h150.4v156.9H36V4.9z"/></g></g><defs><path id="SVGID_9_" d="M163.5 11.4c-1.4 0 27.4 134.8 25 140s-9.6 15.3-41.7 25.9-63 10.9-63.4 12.8c0 7.3 53.2-2.2 65.4-5.3s19.2-6.2 27.9-11.9 17.9-17.8 17.9-17.8-29.7-143.7-31.1-143.7"/></defs><clipPath id="SVGID_10_"><use xlink:href="#SVGID_9_" overflow="visible"/></clipPath><g clip-path="url(#SVGID_10_)"><defs><path id="SVGID_11_" d="M-5.4-23.3h800v800h-800z"/></defs><clipPath id="SVGID_12_"><use xlink:href="#SVGID_11_" overflow="visible"/></clipPath><g clip-path="url(#SVGID_12_)"><path class="st2" d="M75.2 3.3h127.5v197.8H75.2V3.3z"/></g></g><defs><path id="SVGID_13_" d="m309.3 36 74.9 30.4-65.7 101.3s-4.1 6.9-18.7 5.4c-19.5-1.5-80.7-34.6-80.7-34.6s70.6 32.6 87.3 25.6 60.8-83.9 60.7-91.2c-2-5.6-57.8-37-57.8-36.9"/></defs><clipPath id="SVGID_14_"><use xlink:href="#SVGID_13_" overflow="visible"/></clipPath><g clip-path="url(#SVGID_14_)"><defs><path id="SVGID_15_" d="M-5.4-23.3h800v800h-800z"/></defs><clipPath id="SVGID_16_"><use xlink:href="#SVGID_15_" overflow="visible"/></clipPath><g clip-path="url(#SVGID_16_)"><path class="st2" d="M210.9 27.8h181.5v153.7H210.9V27.8z"/></g></g><defs><path id="SVGID_17_" d="m346.5 104.1-34.8 51.3s-4.1 4-14.1 3-30.7-5.9-44-11.9-40-24.3-42.6-30.2 31.4-104.9 31.4-104.9l10.8 11.1s-13.9 58.4-13.6 70.3 1.6 15.8 24.9 26.9c23.3 11.1 34.7 13.5 42.3 11.7s39.7-27.3 39.7-27.3"/></defs><clipPath id="SVGID_18_"><use xlink:href="#SVGID_17_" overflow="visible"/></clipPath><g clip-path="url(#SVGID_18_)"><defs><path id="SVGID_19_" d="M-5.4-23.3h800v800h-800z"/></defs><clipPath id="SVGID_20_"><use xlink:href="#SVGID_19_" overflow="visible"/></clipPath><g clip-path="url(#SVGID_20_)"><path class="st2" d="M202.7 3.3h152v163.5h-152V3.3z"/></g></g><defs><path id="SVGID_21_" d="M236 8.2c1.4.1-41.7 131.5-39.8 137s8 16.2 39.1 30 62.1 17.2 62.3 19.1c-.8 7.2-53.1-7.5-65-11.8s-18.6-8.1-26.7-14.6-16.1-19.5-16.1-19.5S234.6 8 236 8.2"/></defs><clipPath id="SVGID_22_"><use xlink:href="#SVGID_21_" overflow="visible"/></clipPath><g clip-path="url(#SVGID_22_)"><defs><path id="SVGID_23_" d="M-5.4-23.3h800v800h-800z"/></defs><clipPath id="SVGID_24_"><use xlink:href="#SVGID_23_" overflow="visible"/></clipPath><g clip-path="url(#SVGID_24_)"><path class="st2" d="M181.5 0h124.2v204.4H181.5V0z"/></g></g><path d="M320.5 260.6v-24h1.4c6.9 0 11.5 5.2 11.5 12s-4.7 12-11.5 12h-1.4zm-9.2-32.3v40.5H323c11.1 0 20.4-8.4 20.4-20.3 0-11.8-9.3-20.2-20.4-20.2h-11.7zm-31.2 15.4h.1l16.1 25.1h9.2v-40.4h-9.2v25.1h-.1l-16.1-25.1h-9.2v40.5h9.2v-25.2zm-14.6-15.4h-23.1v40.5h23.1v-8.1h-13.9v-8.1H265v-8.1h-13.3v-8h13.9v-8.2zm-68.3 8.1h9.6v32.4h9.2v-32.4h9.6v-8.1h-28.4v8.1zm-28.7 7.3h.1l16.1 25.1h9.2v-40.4h-9.2v25.1h-.1l-16.1-25.1h-9.2v40.5h9.2v-25.2zm-44.1 4.8c0-6 3.3-12.1 10.4-12.1s10.4 6 10.4 12.1-3 12.1-10.4 12.1c-7.5 0-10.4-6-10.4-12.1zm-10 0c0 11.8 8.4 21 20.4 21 11.6 0 20.4-9.2 20.4-21s-9.1-20.9-20.4-20.9c-11.4.1-20.5 9.5-20.4 20.9zm-24.1-2.2v-10.6h1.1c3.5 0 7.7.2 7.7 5.3s-4.2 5.3-7.7 5.3h-1.1zm-9.2-18v40.5h9.2v-16l12.4 16h11.7l-13.9-16.7c5-1.6 8.3-5.6 8.3-11.7 0-7.9-5.7-12-13.2-12l-14.5-.1zm-4.4 0H53.3v40.5h9.2v-16.2h13.1v-8.1H62.5v-8h14.2v-8.2zm241 78.6c1.6.1 3.2-.4 4.4-1.4 1.4-1.2 2.5-3.5 2.5-8.1s-1.1-6.9-2.5-8.1c-1.3-1-2.8-1.4-4.4-1.3v18.9zm7.4 35.5-4.9-26.9h-2.5v26.9h-9.4v-63.7h9.4c11.2 0 15.9 6.3 15.9 18.4 0 6.3-1.6 12-5.2 14.5l6 30.9-9.3-.1zm-22.5-63.6v50.6c0 2.4-.6 4.8-1.6 6.9-.8 1.9-2.1 3.5-3.7 4.7-2.1 1.5-4.6 2.3-7.2 2.2-2.6.1-5.2-.6-7.3-2.2-1.6-1.2-2.8-2.8-3.6-4.7-1-2.2-1.5-4.5-1.6-6.9v-50.6h9.4v50.6c-.1 1.5.4 2.9 1.3 4 .5.5 1.1.7 1.8.7 1.4 0 2.6-1 2.8-2.3.3-.7.4-1.5.4-2.3v-50.6l9.3-.1zm-39.4 13c.1-1.4-.3-2.9-1.2-4-.5-.5-1.2-.7-1.9-.7-1.4 0-2.5 1-2.8 2.3-.3.8-.4 1.5-.4 2.3v37.5c-.1 1.5.4 2.9 1.3 4 .5.5 1.1.7 1.8.7 1.4 0 2.6-1 2.8-2.4.3-.7.4-1.5.4-2.3v-37.4zm9.4 37.6c0 2.4-.6 4.8-1.6 6.9-.8 1.9-2.1 3.5-3.7 4.7-2.1 1.5-4.6 2.3-7.2 2.2-2.6.1-5.2-.6-7.3-2.2-1.6-1.2-2.8-2.8-3.6-4.7-1-2.2-1.5-4.5-1.6-6.9v-37.5c0-2.4.6-4.7 1.6-6.9 1.8-4.4 6.2-7.2 10.9-6.9 2.6-.1 5.1.7 7.2 2.2 1.6 1.3 2.9 2.9 3.7 4.8 1 2.2 1.5 4.5 1.6 6.9v37.4zM233 314.7h-7.3v27.7h-9.4v-63.6h9.4v26.3h7.3v-26.3h9.4v63.7H233v-27.8zm-46.3-15.6.3.6h.2l.3-.6 4.7-20.4h9.2l-9.5 36.6v27.1h-9.4v-27.1l-9.5-36.6h9.2l4.5 20.4zm-31 8.3c2.9 0 4.7-.5 5.7-2s1.3-3.7 1.3-7.3-.3-6.1-1.3-7.6-2.9-2.2-5.7-2.2v19.1zm-9.4-28.7h9.4c4.1 0 8.1 1 11.3 4s5.2 7.8 5.2 15.1-2.1 12-5.2 15a16.2 16.2 0 0 1-11.3 4.2v25.5h-9.4v-63.8zm-20 28.7c2.9 0 4.7-.5 5.7-2s1.3-3.7 1.3-7.3-.3-6.1-1.3-7.6-2.9-2.2-5.7-2.2v19.1zm-9.3-28.7h9.4c4.1 0 8.1 1 11.3 4s5.2 7.8 5.2 15.1-2.1 12-5.2 15a16.2 16.2 0 0 1-11.3 4.2v25.5H117v-63.8zm-18 20.7-.3-1.6h-.5l-.3 1.6-2.7 20.1h6.4L99 299.4zm-15.9 43 9.6-63.7h11.4l9.6 63.7h-9.1l-1.7-13h-9l-1.7 13h-9.1zm-12.6-27.7h-7.3v27.7h-9.4v-63.6h9.4v26.3h7.3v-26.3h9.3v63.7h-9.3v-27.8z" fill="#3a4750"/></svg>