<?xml version="1.0" encoding="UTF-8"?>
<svg id="Layer_1" data-name="Layer 1" xmlns="http://www.w3.org/2000/svg" viewBox="0 0 150 150">
  <circle fill="#fff" cx="75" cy="75" r="75"/>
  <g>
    <path fill="#1773eb" d="m63.2,42.07c3.09,3.09,4.28,7.61,3.09,11.82,3.81-2.29,8.17-3.49,12.61-3.49h.09c6.53.02,12.78,2.64,17.37,7.28h0c3.68,3.87,9.8,4.02,13.66.34,3.87-3.68,4.02-9.8.34-13.66-.09-.1-.19-.19-.29-.29-8.2-8.29-19.37-12.97-31.03-12.99h-.17c-8.73-.02-17.26,2.58-24.5,7.46h.27c3.21,0,6.28,1.27,8.55,3.54Z"/>
    <path fill="#e44f20" d="m103.05,89.67c-2.55,0-5,1.01-6.81,2.8h0c-4.6,4.58-10.83,7.15-17.33,7.15h-.09c-4.45,0-8.82-1.23-12.62-3.55.29,1.05.43,2.14.43,3.23,0,6.67-5.41,12.08-12.08,12.08h-.32c7.23,4.92,15.77,7.57,24.52,7.58h.17c11.6.02,22.73-4.57,30.94-12.76,3.79-3.76,3.81-9.88.06-13.67-1.81-1.83-4.29-2.86-6.86-2.86h0Z"/>
    <path fill="#ffda00" d="m46,90.75c2.26-2.27,5.34-3.55,8.55-3.54,1.11,0,2.21.15,3.27.45-4.7-7.81-4.68-17.58.05-25.37-6.44,1.77-13.09-2.02-14.86-8.46-.29-1.05-.43-2.13-.43-3.21v-.33c-10.11,14.85-10.15,34.36-.12,49.26v-.25c0-3.21,1.26-6.28,3.54-8.55Z"/>
    <path fill="#1773eb" d="m54.66,40.68c-2.75,0-4.67,1.14-7,3.47-2.22,2.22-2.92,4.16-2.93,6.47,0,5.49,4.45,9.93,9.94,9.93,5.49,0,9.93-4.45,9.93-9.94,0-5.48-4.45-9.93-9.93-9.93Z"/>
    <path fill="#e44f20" d="m44.59,99.31c0,2.74,1.14,4.67,3.47,7,2.22,2.22,4.16,2.93,6.47,2.93,5.47-.02,9.89-4.46,9.87-9.93-.02-5.47-4.46-9.89-9.93-9.87-5.46.02-9.87,4.44-9.87,9.9v-.03Z"/>
  </g>
</svg>
