<svg width="116" height="32" fill="none" viewBox="0 0 200 55" preserveAspectRatio="xMidYMid meet"><g fill="#081026" clip-path="url(#a)"><path d="M64.774 24.34V37.4h-5.77V25.901c0-.725-.18-1.375-.543-1.95a3.83 3.83 0 0 0-1.422-1.397 3.821 3.821 0 0 0-1.965-.513c-.724 0-1.386.171-1.986.513a3.83 3.83 0 0 0-1.421 1.397c-.349.575-.523 1.225-.523 1.95V37.4h-5.77l-.02-30.8h5.77l.02 11.786a7.606 7.606 0 0 1 2.446-1.54 8.155 8.155 0 0 1 2.99-.554c1.519 0 2.891.362 4.118 1.088a8.339 8.339 0 0 1 2.968 2.916c.74 1.204 1.108 2.553 1.108 4.045ZM81.887 16.867h6.146l-11.456 30.8h-6.104L74.236 37.4 66.71 16.867h6.313l4.098 12.792 4.766-12.792ZM105.263 16.867h5.77v20.82c0 1.52-.313 2.889-.94 4.107a9.634 9.634 0 0 1-2.572 3.162c-1.073.876-2.313 1.547-3.721 2.012a13.9 13.9 0 0 1-4.432.699c-1.477 0-2.892-.288-4.244-.863a11.584 11.584 0 0 1-3.596-2.34c-1.045-1-1.86-2.15-2.445-3.45l5.268-2.361c.293.684.69 1.273 1.191 1.765a5.41 5.41 0 0 0 1.757 1.13c.668.273 1.358.41 2.07.41a8.84 8.84 0 0 0 2.194-.267 6.4 6.4 0 0 0 1.903-.8c.557-.356.996-.801 1.317-1.335.32-.534.48-1.157.48-1.868v-2.382a7.696 7.696 0 0 1-2.341 1.91c-.906.478-1.958.718-3.157.718-1.505 0-2.92-.28-4.243-.842a11.2 11.2 0 0 1-3.47-2.32c-1.004-1-1.792-2.15-2.363-3.45-.572-1.3-.857-2.697-.857-4.189s.285-2.888.857-4.188a10.915 10.915 0 0 1 2.362-3.43c1.004-.999 2.16-1.78 3.47-2.34a10.76 10.76 0 0 1 4.244-.842c1.199 0 2.251.246 3.157.739a7.44 7.44 0 0 1 2.341 1.89v-2.095Zm-5.414 15.625c.948 0 1.805-.239 2.571-.718a5.19 5.19 0 0 0 1.798-1.95c.446-.808.669-1.705.669-2.69 0-.986-.223-1.883-.669-2.69a4.994 4.994 0 0 0-1.798-1.951c-.766-.48-1.623-.719-2.571-.719-.934 0-1.791.24-2.571.719a5.318 5.318 0 0 0-1.84 1.95c-.46.808-.69 1.705-.69 2.69 0 .986.23 1.89.69 2.71a5.366 5.366 0 0 0 1.84 1.93 4.82 4.82 0 0 0 2.57.72ZM115.495 37.4l-.021-20.533h5.77l.021 1.52a7.605 7.605 0 0 1 2.446-1.54 8.154 8.154 0 0 1 2.989-.555c.767 0 1.533.11 2.3.328l-2.279 5.73a3.996 3.996 0 0 0-1.526-.309c-.725 0-1.387.171-1.986.513a3.837 3.837 0 0 0-1.422 1.397c-.348.575-.522 1.225-.522 1.95V37.4h-5.77ZM145.06 16.867h5.77V37.4h-5.791l-.272-2.136a6.364 6.364 0 0 1-2.091 1.93c-.85.493-1.846.74-2.989.74-1.561 0-3.017-.288-4.369-.862a11.44 11.44 0 0 1-3.575-2.382 11.222 11.222 0 0 1-2.425-3.512c-.572-1.341-.857-2.778-.857-4.312 0-1.464.271-2.833.815-4.106a10.402 10.402 0 0 1 2.3-3.368 10.958 10.958 0 0 1 3.407-2.279c1.296-.547 2.69-.821 4.181-.821 1.283 0 2.432.267 3.45.8a9.86 9.86 0 0 1 2.697 2.033l-.251-2.258Zm-5.519 15.625c.947 0 1.804-.239 2.571-.718a5.195 5.195 0 0 0 1.819-1.93 5.587 5.587 0 0 0 .669-2.71c0-1-.223-1.903-.669-2.711a5.195 5.195 0 0 0-1.819-1.93 4.754 4.754 0 0 0-2.571-.719c-.962 0-1.833.24-2.614.719-.78.479-1.4 1.13-1.86 1.95-.46.808-.69 1.705-.69 2.69 0 .986.23 1.89.69 2.71a5.483 5.483 0 0 0 1.881 1.93c.781.48 1.645.72 2.593.72ZM160.993 47.667h-5.77v-30.8h5.77v2.217a8.205 8.205 0 0 1 2.383-1.97c.92-.521 1.993-.781 3.22-.781 1.519 0 2.94.28 4.264.842a10.907 10.907 0 0 1 3.513 2.34 10.932 10.932 0 0 1 2.362 3.43c.571 1.3.857 2.696.857 4.188 0 1.492-.286 2.896-.857 4.21a11.11 11.11 0 0 1-2.362 3.47 11.08 11.08 0 0 1-3.513 2.32c-1.324.561-2.745.842-4.264.842-1.227 0-2.3-.26-3.22-.78a8.665 8.665 0 0 1-2.383-1.971v12.443Zm5.519-25.893c-.948 0-1.805.246-2.571.74a5.254 5.254 0 0 0-1.798 1.93c-.432.807-.648 1.704-.648 2.69 0 .985.216 1.888.648 2.71a5.254 5.254 0 0 0 1.798 1.93c.766.479 1.623.718 2.571.718.948 0 1.812-.239 2.592-.718a5.25 5.25 0 0 0 1.882-1.93c.474-.808.711-1.711.711-2.71 0-.973-.23-1.862-.69-2.67a5.206 5.206 0 0 0-1.882-1.95 4.791 4.791 0 0 0-2.613-.74ZM199.257 24.34V37.4h-5.77V25.901c0-.725-.182-1.375-.544-1.95a3.822 3.822 0 0 0-1.422-1.397 3.82 3.82 0 0 0-1.965-.513c-.724 0-1.386.171-1.986.513a3.827 3.827 0 0 0-1.421 1.397c-.349.575-.523 1.225-.523 1.95V37.4h-5.77l-.021-30.8h5.77l.021 11.786a7.605 7.605 0 0 1 2.446-1.54 8.154 8.154 0 0 1 2.989-.554c1.52 0 2.892.362 4.119 1.088a8.336 8.336 0 0 1 2.968 2.916c.739 1.204 1.109 2.553 1.109 4.045Z"></path><path d="M25.965 7.333 19.474 11l-6.491 3.666-6.492 3.667v22l6.492-3.666L19.473 33v-7.333l-6.49 3.666V22l6.49-3.667 6.492-3.666v22l-6.491 3.666L12.983 44 6.49 47.667 0 51.333 6.491 55l6.492-3.667 6.49-3.666L25.966 44l6.492-3.666V3.666L25.965 0v7.333Z"></path></g></svg>
