<?xml version="1.0" encoding="utf-8"?>
<svg version="1.1"
  xmlns="http://www.w3.org/2000/svg"
  xmlns:xlink="http://www.w3.org/1999/xlink" x="0px" y="0px" viewBox="0 0 236 39" style="enable-background:new 0 0 236 39;" xml:space="preserve">
  <style type="text/css">
	.st0{clip-path:url(#SVGID_2_);}
	.st1{fill:#DD0031;}
	.st2{fill:#FFFFFF;}
	.st3{clip-path:url(#SVGID_4_);}
	.st4{clip-path:url(#SVGID_6_);}
	.st5{fill:none;stroke:#DD0031;stroke-width:1.0274;stroke-miterlimit:10;}
  </style>
  <g id="Livello_1">
    <g>
      <defs>
        <rect id="SVGID_1_" width="36.3" height="38.9"/>
      </defs>
      <clipPath id="SVGID_2_">
        <use xlink:href="#SVGID_1_" style="overflow:visible;"/>
      </clipPath>
      <g class="st0">
        <path class="st1" d="M18.2,0l-0.3,0.1L0.6,6.3L0,6.5l0.1,0.7l2.6,22.8l0,0.4l0.4,0.2l14.6,8.1l0.4,0.2l0.4-0.2l14.6-8.1l0.4-0.2
				l0-0.4l2.6-22.8l0.1-0.7l-0.6-0.2L18.4,0.1L18.2,0z"/>
        <path class="st2" d="M21.1,21.1c0.1,0,0.2,0,0.3,0.1c0.1,0.1,0.1,0.2,0.1,0.3h0.8c0-0.3-0.1-0.6-0.4-0.9
				c-0.2-0.2-0.5-0.4-0.9-0.4c-0.7,0-1.2,0.5-1.2,1.2v0.8h0.8v-0.8C20.7,21.3,20.9,21.1,21.1,21.1z"/>
        <path class="st2" d="M12,7.9H6.1v0.8h6.4L12,7.9z"/>
        <path class="st2" d="M20,15.1h-2.2l0,0l-1.1-2h-0.9l1.2,2h-3.7v-0.8c0-0.1,0-0.2,0.1-0.3c0.1-0.1,0.2-0.1,0.3-0.1s0.2,0,0.3,0.1
				c0.1,0.1,0.1,0.2,0.1,0.3h0.8c0-0.3-0.1-0.6-0.4-0.9c-0.2-0.2-0.5-0.4-0.9-0.4c-0.3,0-0.6,0.1-0.9,0.4c-0.2,0.2-0.4,0.5-0.4,0.9
				v0.8H9.6v-0.8c0-0.2,0.2-0.4,0.4-0.4c0.2,0,0.4,0.2,0.4,0.4h0.8c0-0.7-0.5-1.2-1.2-1.2c-0.7,0-1.2,0.5-1.2,1.2v0.8H7.7v-2H6.9v2
				H6.1v0.8h14.3L20,15.1z"/>
        <path class="st2" d="M16,11.5h-2.1l-1.1-2h-0.9l1.1,2H7.7v-2H6.9v2H6.1v0.8h10.4L16,11.5z"/>
        <path class="st2" d="M23.7,18.7h-1.8l0,0l-1.1-2h-0.9l1.1,2H17v-0.8c0-0.1,0-0.2,0.1-0.3c0.1-0.1,0.2-0.1,0.3-0.1
				c0.1,0,0.2,0,0.3,0.1c0.1,0.1,0.1,0.2,0.1,0.3h0.8c0-0.3-0.1-0.6-0.4-0.9c-0.2-0.2-0.5-0.4-0.9-0.4c-0.3,0-0.6,0.1-0.9,0.4
				c-0.2,0.2-0.4,0.5-0.4,0.9v0.8h-2.9v-0.8c0-0.1,0-0.2,0.1-0.3c0.1-0.1,0.2-0.1,0.3-0.1c0.2,0,0.4,0.2,0.4,0.4h0.8
				c0-0.7-0.5-1.2-1.2-1.2c-0.3,0-0.6,0.1-0.9,0.4c-0.2,0.2-0.4,0.5-0.4,0.9v0.8H9.6v-0.8c0-0.2,0.2-0.4,0.4-0.4
				c0.2,0,0.4,0.2,0.4,0.4h0.8c0-0.7-0.5-1.2-1.2-1.2c-0.7,0-1.2,0.5-1.2,1.2v0.8H7.7v-2H6.9v2H6.1v0.8h18L23.7,18.7z"/>
        <path class="st2" d="M30.4,15.9v-0.8H21l0.5,0.8H30.4z"/>
        <path class="st2" d="M28.9,16.8v2h-4.3l0.5,0.8h5.4v-0.8h-0.8v-2H28.9z"/>
        <path class="st2" d="M29.7,22.3v-2h-0.8v2h-3.3l-1.1-1.9h-0.9l1.1,1.9H17v-0.8c0-0.1,0-0.2,0.1-0.3c0.1-0.1,0.2-0.1,0.3-0.1
				c0.1,0,0.2,0,0.3,0.1c0.1,0.1,0.1,0.2,0.1,0.3h0.8c0-0.3-0.1-0.6-0.4-0.9c-0.2-0.2-0.5-0.4-0.9-0.4c-0.3,0-0.6,0.1-0.9,0.4
				c-0.2,0.2-0.4,0.5-0.4,0.9v0.8h-2.9v-0.8c0-0.1,0-0.2,0.1-0.3c0.1-0.1,0.2-0.1,0.3-0.1c0.2,0,0.4,0.2,0.4,0.4h0.8
				c0-0.7-0.5-1.2-1.2-1.2c-0.3,0-0.6,0.1-0.9,0.4c-0.2,0.2-0.4,0.5-0.4,0.9v0.8H9.6v-0.8c0-0.2,0.2-0.4,0.4-0.4
				c0.1,0,0.2,0,0.3,0.1c0.1,0.1,0.1,0.2,0.1,0.3h0.8c0-0.3-0.1-0.6-0.4-0.9s-0.5-0.4-0.9-0.4c-0.7,0-1.2,0.5-1.2,1.2v0.8H7.7v-1.9
				H6.9v1.9H3.5l0.1,0.8h29.1l0.1-0.8L29.7,22.3L29.7,22.3z"/>
        <path class="st2" d="M11.7,24.4v9.1l0.8,0.4v-9.5H11.7z"/>
        <path class="st2" d="M13.7,24.4v10.2l0.8,0.4V24.4H13.7z"/>
        <path class="st2" d="M9.7,24.4v8l0.8,0.4v-8.4H9.7z"/>
        <path class="st2" d="M7.7,24.4v6.9l0.8,0.5v-7.3H7.7z"/>
        <path class="st2" d="M3.7,24.4l0.6,5l0.2,0.1v-5.1H3.7z"/>
        <path class="st2" d="M17.7,24.4v12.4l0.4,0.2l0.4-0.2V24.4H17.7z"/>
        <path class="st2" d="M5.7,24.4v5.7l0.8,0.5v-6.2H5.7z"/>
        <path class="st2" d="M15.7,24.4v11.3l0.8,0.5V24.4H15.7z"/>
        <path class="st2" d="M29.8,24.4v6.2l0.8-0.4v-5.7H29.8z"/>
        <path class="st2" d="M19.8,24.4v11.8l0.8-0.4V24.4H19.8z"/>
        <path class="st2" d="M27.8,24.4v7.3l0.8-0.4v-6.9H27.8z"/>
        <path class="st2" d="M31.8,24.4v5.1l0.2-0.1l0.6-5H31.8z"/>
        <path class="st2" d="M25.8,24.4v8.4l0.8-0.5v-8H25.8z"/>
        <path class="st2" d="M21.8,24.4V35l0.8-0.5V24.4H21.8z"/>
        <path class="st2" d="M23.8,24.4v9.5l0.8-0.5v-9.1H23.8z"/>
      </g>
    </g>
    <g>
      <defs>
        <rect id="SVGID_3_" x="45.4" y="6.9" width="136" height="22.9"/>
      </defs>
      <clipPath id="SVGID_4_">
        <use xlink:href="#SVGID_3_" style="overflow:visible;"/>
      </clipPath>
      <g class="st3">
        <path class="st1" d="M45.4,6.9l14.7,13.6V8h4.1v21.8L49.6,16.2v12.6h-4.1V6.9z M78.9,21v-3.4h10.3c0.1,1.6-0.1,3.1-0.6,4.5
				c-0.4,1.4-1.1,2.6-2,3.7c-0.9,1.1-2,1.9-3.3,2.5c-1.3,0.6-2.9,0.9-4.6,0.9c-2.2,0-4.1-0.5-5.8-1.4c-1.7-0.9-3-2.2-3.9-3.8
				c-1-1.6-1.4-3.5-1.4-5.7c0-2.2,0.5-4,1.5-5.7c1-1.6,2.3-2.9,4-3.8c1.7-0.9,3.6-1.3,5.8-1.3c2.1,0,3.9,0.4,5.5,1.3
				c1.5,0.9,2.8,2,3.7,3.5l-3.7,2.2c-0.5-0.9-1.3-1.6-2.2-2.2c-0.9-0.6-2-0.9-3.4-0.9c-1.2,0-2.4,0.3-3.4,0.8
				c-1,0.6-1.8,1.4-2.5,2.4c-0.6,1-0.9,2.3-0.9,3.7c0,1.4,0.3,2.7,0.9,3.8c0.6,1.1,1.4,1.9,2.4,2.5c1,0.6,2.2,0.9,3.5,0.9
				c1.7,0,3-0.4,4-1.3c1-0.8,1.6-1.9,2-3.2H78.9z M105.3,21.2v7.5H101V8h2.6h1.7h2.7c1.6,0,3.1,0.3,4.2,0.8c1.2,0.6,2,1.3,2.7,2.3
				c0.6,1,0.9,2.2,0.9,3.5c0,1.5-0.4,2.7-1.1,3.8c-0.8,1.1-1.8,1.8-3.3,2.3l5.7,8H112l-4.9-7.5H105.3z M105.3,17.8h2.5
				c1.1,0,2-0.3,2.6-0.8c0.7-0.5,1-1.3,1-2.3c0-1-0.3-1.8-1-2.3c-0.7-0.5-1.5-0.8-2.6-0.8h-2.5V17.8z M118.3,18.4
				c0-1.6,0.3-3,0.8-4.3c0.6-1.3,1.3-2.5,2.3-3.4c1-1,2.2-1.7,3.5-2.2c1.3-0.5,2.8-0.8,4.4-0.8c1.6,0,3,0.3,4.4,0.8
				c1.3,0.5,2.5,1.3,3.5,2.2c1,1,1.8,2.1,2.3,3.4c0.5,1.3,0.8,2.8,0.8,4.3c0,1.6-0.3,3-0.8,4.3c-0.5,1.3-1.3,2.5-2.3,3.5
				c-1,1-2.1,1.7-3.5,2.3c-1.3,0.5-2.8,0.8-4.4,0.8s-3.1-0.3-4.4-0.8s-2.5-1.3-3.5-2.3c-1-1-1.7-2.1-2.3-3.5
				C118.5,21.4,118.3,19.9,118.3,18.4z M122.8,18.4c0,1.3,0.3,2.5,0.8,3.5c0.6,1,1.3,1.8,2.3,2.4c1,0.6,2.1,0.9,3.4,0.9
				c1.3,0,2.4-0.3,3.4-0.9c1-0.6,1.7-1.4,2.3-2.4c0.6-1,0.8-2.2,0.8-3.5c0-1.3-0.3-2.5-0.8-3.5c-0.5-1-1.3-1.8-2.3-2.4
				c-1-0.6-2.1-0.9-3.4-0.9c-1.3,0-2.4,0.3-3.4,0.9c-1,0.6-1.7,1.4-2.3,2.4C123.1,15.9,122.8,17,122.8,18.4z M147.6,17.3l-1.3,11.5
				h-4.5l3.1-21.8l8.7,13.4l8.7-13.4l3.2,21.8h-4.5l-1.3-11.5l-6,9.5L147.6,17.3z M172.3,19.5v5.6h9.1v3.6h-9.1h-1.4h-2.7V8h2.7h1.4
				h9.1v3.6h-9.1v4.4h8.5v3.5H172.3z"/>
      </g>
    </g>
    <g>
      <defs>
        <rect id="SVGID_5_" x="187.2" y="13.8" width="39.8" height="9.5"/>
      </defs>
      <clipPath id="SVGID_6_">
        <use xlink:href="#SVGID_5_" style="overflow:visible;"/>
      </clipPath>
    </g>
  </g>

</svg>
