<svg width="886" height="231" viewBox="0 0 886 231" fill="none" xmlns="http://www.w3.org/2000/svg">
<g clip-path="url(#clip0_112_20)">
<path fill-rule="evenodd" clip-rule="evenodd" d="M0 30H841V231.475H0V30ZM95.0364 123.63C98.02 125.502 102.027 126.438 107.058 126.438C112.206 126.438 116.243 125.502 119.168 123.63C122.151 121.699 124.287 119.008 125.574 115.557C126.919 112.047 127.592 107.922 127.592 103.184V76.5077C127.592 71.7107 126.919 67.6157 125.574 64.2227C124.287 60.7712 122.151 58.1386 119.168 56.3251C116.243 54.5116 112.206 53.6049 107.058 53.6049C102.027 53.6049 98.02 54.5116 95.0364 56.3251C92.0529 58.1386 89.9177 60.7712 88.6307 64.2227C87.3437 67.6157 86.7002 71.7107 86.7002 76.5077V103.096C86.7002 107.893 87.3437 112.047 88.6307 115.557C89.9177 119.067 92.0529 121.758 95.0364 123.63ZM111.797 115.469C110.802 116.405 109.223 116.873 107.058 116.873C104.952 116.873 103.373 116.405 102.32 115.469C101.267 114.533 100.565 113.246 100.214 111.608C99.9212 109.97 99.775 108.186 99.775 106.255V73.5242C99.775 71.5352 99.9505 69.7509 100.301 68.1714C100.652 66.5919 101.354 65.3634 102.407 64.4859C103.46 63.5499 105.011 63.0819 107.058 63.0819C109.223 63.0819 110.802 63.5499 111.797 64.4859C112.85 65.3634 113.552 66.5919 113.903 68.1714C114.254 69.7509 114.429 71.5352 114.429 73.5242V106.255C114.429 108.186 114.254 109.97 113.903 111.608C113.552 113.246 112.85 114.533 111.797 115.469ZM23.0784 54.3946L33.1697 125.472H43.963L51.7727 77.824L59.6703 125.472H70.2003L80.1161 54.3946H69.4106L63.6191 100.464L56.0725 54.5701H47.2097L39.8387 100.464L33.9594 54.3946H23.0784ZM137.198 125.472V54.3946H154.222C159.019 54.3946 163.056 54.9796 166.332 56.1496C169.666 57.2611 172.182 59.1916 173.878 61.9412C175.633 64.6907 176.511 68.4347 176.511 73.1732C176.511 76.0397 176.247 78.6137 175.721 80.8952C175.194 83.1768 174.288 85.1365 173.001 86.7745C171.772 88.354 170.046 89.5825 167.823 90.46L177.739 125.472H164.752L156.153 92.9171H150.186V125.472H137.198ZM150.186 84.7563H154.222C156.738 84.7563 158.727 84.4053 160.189 83.7033C161.71 82.9428 162.792 81.7728 163.436 80.1932C164.079 78.5552 164.401 76.4785 164.401 73.963C164.401 70.3944 163.728 67.7327 162.383 65.9777C161.096 64.1642 158.61 63.2574 154.924 63.2574H150.186V84.7563ZM186.387 54.3946V125.472H216.573V116.522H199.374V54.3946H186.387ZM223.321 125.472V54.3946H240.081C245.873 54.3946 250.377 55.1844 253.595 56.7639C256.871 58.3434 259.181 60.7711 260.527 64.0472C261.931 67.3232 262.633 71.4767 262.633 76.5077V102.482C262.633 107.63 261.931 111.93 260.527 115.381C259.181 118.774 256.9 121.319 253.682 123.015C250.523 124.653 246.165 125.472 240.608 125.472H223.321ZM236.308 116.434H240.257C243.24 116.434 245.375 115.908 246.662 114.855C247.949 113.802 248.739 112.281 249.032 110.292C249.324 108.244 249.47 105.758 249.47 102.833V75.6302C249.47 72.7637 249.266 70.4529 248.856 68.6979C248.447 66.9429 247.598 65.6559 246.311 64.8369C245.024 64.0179 242.948 63.6084 240.081 63.6084H236.308V116.434ZM269.534 54.3946L279.625 125.472H290.418L298.228 77.824L306.126 125.472H316.656L326.571 54.3946H315.866L310.074 100.464L302.528 54.5701H293.665L286.294 100.464L280.415 54.3946H269.534ZM334.988 125.472V54.3946H347.799V125.472H334.988ZM358.803 54.3946V125.472H376.089C381.647 125.472 386.005 124.653 389.164 123.015C392.382 121.319 394.663 118.774 396.009 115.381C397.413 111.93 398.115 107.63 398.115 102.482V76.5077C398.115 71.4767 397.413 67.3232 396.009 64.0472C394.663 60.7711 392.352 58.3434 389.076 56.7639C385.859 55.1844 381.354 54.3946 375.563 54.3946H358.803ZM375.738 116.434H371.79V63.6084H375.563C378.429 63.6084 380.506 64.0179 381.793 64.8369C383.08 65.6559 383.928 66.9429 384.338 68.6979C384.747 70.4529 384.952 72.7637 384.952 75.6302V102.833C384.952 105.758 384.806 108.244 384.513 110.292C384.221 112.281 383.431 113.802 382.144 114.855C380.857 115.908 378.722 116.434 375.738 116.434ZM407.648 125.472V54.3946H437.483V63.5207H420.635V83.9665H433.885V93.0048H420.635V116.522H437.659V125.472H407.648ZM473.715 123.981C476.582 125.619 480.15 126.438 484.421 126.438C487.989 126.438 491.09 125.706 493.722 124.244C496.413 122.723 498.49 120.646 499.953 118.014C501.474 115.381 502.234 112.368 502.234 108.975C502.234 104.295 501.181 100.317 499.075 97.0413C497.028 93.7068 494.541 90.811 491.616 88.354L482.753 80.5442C480.881 78.9062 479.448 77.3267 478.454 75.8057C477.459 74.2262 476.962 72.2372 476.962 69.8387C476.962 67.9667 477.459 66.4164 478.454 65.1879C479.507 63.9009 480.998 63.2574 482.929 63.2574C484.801 63.2574 486.205 63.7547 487.141 64.7492C488.135 65.7437 488.808 67.1184 489.159 68.8734C489.569 70.6284 489.832 72.6175 489.949 74.8405L501.006 72.91C500.83 70.3359 500.421 67.9082 499.777 65.6267C499.134 63.2867 498.139 61.2099 496.794 59.3964C495.507 57.5829 493.751 56.1789 491.529 55.1844C489.305 54.1314 486.527 53.6049 483.192 53.6049C477.518 53.6049 473.042 55.1259 469.766 58.1679C466.49 61.2099 464.852 65.5389 464.852 71.1549C464.852 75.0745 465.584 78.3797 467.046 81.0707C468.567 83.7033 470.585 86.1018 473.101 88.2663L482.051 96.1638C484.391 98.1528 486.263 100.142 487.667 102.131C489.071 104.12 489.773 106.665 489.773 109.765C489.773 111.696 489.335 113.304 488.457 114.591C487.58 115.82 486.088 116.434 483.982 116.434C482.11 116.434 480.589 115.878 479.419 114.767C478.307 113.597 477.459 111.959 476.874 109.853C476.348 107.747 476.026 105.319 475.909 102.57L464.765 104.763C464.94 109.443 465.759 113.392 467.222 116.61C468.684 119.827 470.849 122.284 473.715 123.981ZM529.186 126.438C524.155 126.438 520.147 125.502 517.164 123.63C514.18 121.758 512.045 119.067 510.758 115.557C509.471 112.047 508.828 107.893 508.828 103.096V76.5077C508.828 71.7107 509.471 67.6157 510.758 64.2227C512.045 60.7712 514.18 58.1386 517.164 56.3251C520.147 54.5116 524.155 53.6049 529.186 53.6049C534.334 53.6049 538.37 54.5116 541.295 56.3251C544.279 58.1386 546.414 60.7712 547.701 64.2227C549.047 67.6157 549.719 71.7107 549.719 76.5077V103.184C549.719 107.922 549.047 112.047 547.701 115.557C546.414 119.008 544.279 121.699 541.295 123.63C538.37 125.502 534.334 126.438 529.186 126.438ZM529.186 116.873C531.35 116.873 532.93 116.405 533.924 115.469C534.977 114.533 535.679 113.246 536.03 111.608C536.381 109.97 536.557 108.186 536.557 106.255V73.5242C536.557 71.5352 536.381 69.7509 536.03 68.1714C535.679 66.5919 534.977 65.3634 533.924 64.4859C532.93 63.5499 531.35 63.0819 529.186 63.0819C527.138 63.0819 525.588 63.5499 524.535 64.4859C523.482 65.3634 522.78 66.5919 522.429 68.1714C522.078 69.7509 521.902 71.5352 521.902 73.5242V106.255C521.902 108.186 522.049 109.97 522.341 111.608C522.692 113.246 523.394 114.533 524.447 115.469C525.5 116.405 527.08 116.873 529.186 116.873ZM559.326 54.3946V125.472H572.313V93.0926H585.563V84.0543H572.313V63.3452H588.547V54.3946H559.326ZM602.682 125.472V63.9594H591.362V54.3946H626.814V63.9594H615.669V125.472H602.682ZM630.647 54.3946L640.738 125.472H651.532L659.342 77.824L667.239 125.472H677.769L687.685 54.3946H676.979L671.188 100.464L663.641 54.5701H654.779L647.408 100.464L641.528 54.3946H630.647ZM689.925 125.472L704.14 54.3946H718.005L732.22 125.472H720.199L717.391 109.063H705.018L702.122 125.472H689.925ZM715.987 100.815L711.16 70.9794L706.334 100.815H715.987ZM739.369 54.3946V125.472H752.356V92.9171H758.323L766.922 125.472H779.909L769.993 90.46C772.216 89.5825 773.942 88.354 775.171 86.7745C776.458 85.1365 777.365 83.1768 777.891 80.8952C778.418 78.6137 778.681 76.0397 778.681 73.1732C778.681 68.4347 777.803 64.6907 776.048 61.9412C774.352 59.1916 771.836 57.2611 768.502 56.1496C765.226 54.9796 761.189 54.3946 756.392 54.3946H739.369ZM756.392 84.7563H752.356V63.2574H757.094C760.78 63.2574 763.266 64.1642 764.553 65.9777C765.898 67.7327 766.571 70.3944 766.571 73.963C766.571 76.4785 766.249 78.5552 765.606 80.1932C764.962 81.7728 763.88 82.9428 762.359 83.7033C760.897 84.4053 758.908 84.7563 756.392 84.7563ZM788.557 125.472V54.3946H818.392V63.5207H801.544V83.9665H814.794V93.0048H801.544V116.522H818.567V125.472H788.557ZM793.32 205.669C795.739 207.111 798.905 207.831 802.818 207.831C806.782 207.831 809.948 207.034 812.316 205.438C814.735 203.842 816.46 201.628 817.49 198.797C818.571 195.914 819.111 192.593 819.111 188.835C819.111 185.952 818.751 183.507 818.03 181.499C817.361 179.44 816.409 177.793 815.173 176.557C813.938 175.27 812.496 174.369 810.849 173.855C813.268 173.134 815.25 171.589 816.795 169.221C818.339 166.853 819.111 163.816 819.111 160.109C819.111 156.557 818.468 153.571 817.181 151.152C815.945 148.681 814.118 146.802 811.698 145.515C809.279 144.228 806.293 143.584 802.74 143.584C799.291 143.584 796.357 144.253 793.937 145.592C791.518 146.879 789.665 148.784 788.378 151.306C787.142 153.777 786.524 156.789 786.524 160.341V163.353H797.103V162.194V161.036C797.155 158.41 797.541 156.274 798.262 154.627C799.034 152.979 800.527 152.156 802.74 152.156C805.006 152.156 806.524 152.902 807.297 154.395C808.12 155.888 808.532 157.947 808.532 160.573C808.532 163.816 807.992 166.184 806.91 167.677C805.829 169.118 803.873 169.865 801.042 169.916H800.192H799.42V178.488H800.424H801.196C804.079 178.642 806.01 179.646 806.988 181.499C808.017 183.301 808.532 185.798 808.532 188.99C808.532 191.049 808.378 192.825 808.069 194.318C807.811 195.811 807.271 196.943 806.447 197.716C805.675 198.488 804.491 198.874 802.895 198.874C801.402 198.874 800.218 198.514 799.343 197.793C798.519 197.072 797.953 196.017 797.644 194.627C797.335 193.237 797.155 191.564 797.103 189.607V188.526V187.754H786.524V189.916C786.524 193.52 787.065 196.686 788.146 199.414C789.227 202.091 790.952 204.176 793.32 205.669ZM114.42 205.052C117.046 206.853 120.65 207.754 125.231 207.754C129.659 207.754 133.082 206.956 135.502 205.36C137.973 203.713 139.697 201.474 140.675 198.642C141.654 195.759 142.143 192.465 142.143 188.758V183.739H131.177V189.376C131.177 191.229 131.074 192.902 130.868 194.395C130.663 195.888 130.148 197.098 129.324 198.024C128.552 198.9 127.213 199.337 125.309 199.337C123.661 199.337 122.348 198.977 121.37 198.256C120.444 197.484 119.8 196.377 119.44 194.936C119.079 193.443 118.899 191.564 118.899 189.299V162.117C118.899 160.212 119.028 158.513 119.285 157.02C119.543 155.476 120.109 154.266 120.984 153.391C121.911 152.464 123.352 152.001 125.309 152.001C127.265 152.001 128.629 152.439 129.401 153.314C130.225 154.138 130.714 155.27 130.868 156.712C131.074 158.153 131.177 159.749 131.177 161.499V166.905H142.143V161.654C142.143 158.05 141.628 154.884 140.598 152.156C139.569 149.427 137.818 147.342 135.347 145.901C132.928 144.408 129.556 143.661 125.231 143.661C120.65 143.661 117.046 144.511 114.42 146.21C111.846 147.908 110.045 150.328 109.015 153.468C107.985 156.609 107.471 160.315 107.471 164.588V186.905C107.471 190.972 107.985 194.575 109.015 197.716C110.045 200.804 111.846 203.25 114.42 205.052ZM21.9026 206.905L34.4123 144.356H46.6132L59.1229 206.905H48.5437L46.0726 192.465H35.1845L32.6363 206.905H21.9026ZM36.3428 185.206H44.8371L40.59 158.951L36.3428 185.206ZM65.4133 206.905V144.356H80.3941C84.6154 144.356 88.1676 144.871 91.0505 145.901C93.9848 146.879 96.1985 148.578 97.6914 150.997C99.2358 153.417 100.008 156.712 100.008 160.882C100.008 163.404 99.7764 165.669 99.313 167.677C98.8497 169.685 98.0518 171.409 96.9192 172.851C95.8381 174.241 94.3195 175.322 92.3632 176.094L101.089 206.905H89.6605L82.0929 178.256H76.8419V206.905H65.4133ZM76.8419 171.075H80.3941C82.6077 171.075 84.358 170.766 85.645 170.148C86.9835 169.479 87.9359 168.449 88.5022 167.059C89.0685 165.618 89.3516 163.79 89.3516 161.576C89.3516 158.436 88.7596 156.094 87.5756 154.549C86.443 152.954 84.2551 152.156 81.0118 152.156H76.8419V171.075ZM150.254 206.905V144.356H161.605V170.534H174.347V144.356H185.775V206.905H174.347V178.642H161.605V206.905H150.254ZM195.655 144.356V206.905H206.929V144.356H195.655ZM222.866 206.905V152.773H212.905V144.356H244.102V152.773H234.295V206.905H222.866ZM249.792 144.356V206.905H276.201V199.028H261.221V178.333H272.881V170.38H261.221V152.387H276.047V144.356H249.792ZM299.656 207.754C295.074 207.754 291.47 206.853 288.845 205.052C286.271 203.25 284.469 200.804 283.44 197.716C282.41 194.575 281.895 190.972 281.895 186.905V164.588C281.895 160.315 282.41 156.609 283.44 153.468C284.469 150.328 286.271 147.908 288.845 146.21C291.47 144.511 295.074 143.661 299.656 143.661C303.98 143.661 307.352 144.408 309.772 145.901C312.243 147.342 313.993 149.427 315.023 152.156C316.052 154.884 316.567 158.05 316.567 161.654V166.905H305.602V161.499C305.602 159.749 305.499 158.153 305.293 156.712C305.138 155.27 304.649 154.138 303.826 153.314C303.054 152.439 301.689 152.001 299.733 152.001C297.777 152.001 296.335 152.464 295.409 153.391C294.534 154.266 293.967 155.476 293.71 157.02C293.452 158.513 293.324 160.212 293.324 162.117V189.299C293.324 191.564 293.504 193.443 293.864 194.936C294.225 196.377 294.868 197.484 295.795 198.256C296.773 198.977 298.086 199.337 299.733 199.337C301.638 199.337 302.976 198.9 303.749 198.024C304.572 197.098 305.087 195.888 305.293 194.395C305.499 192.902 305.602 191.229 305.602 189.376V183.739H316.567V188.758C316.567 192.465 316.078 195.759 315.1 198.642C314.122 201.474 312.397 203.713 309.926 205.36C307.507 206.956 304.083 207.754 299.656 207.754ZM330.779 152.773V206.905H342.207V152.773H352.014V144.356H320.817V152.773H330.779ZM374.847 207.754C370.214 207.754 366.611 206.905 364.037 205.206C361.463 203.507 359.686 201.088 358.708 197.947C357.73 194.807 357.241 191.049 357.241 186.673V144.356H368.361V187.986C368.361 189.942 368.49 191.795 368.747 193.546C369.004 195.245 369.596 196.635 370.523 197.716C371.501 198.745 372.943 199.26 374.847 199.26C376.855 199.26 378.297 198.745 379.172 197.716C380.098 196.635 380.69 195.245 380.948 193.546C381.257 191.795 381.411 189.942 381.411 187.986V144.356H392.454V186.673C392.454 191.049 391.965 194.807 390.986 197.947C390.008 201.088 388.232 203.507 385.658 205.206C383.136 206.905 379.532 207.754 374.847 207.754ZM401.443 144.356V206.905H412.871V178.256H418.122L425.69 206.905H437.118L428.392 176.094C430.349 175.322 431.867 174.241 432.948 172.851C434.081 171.409 434.879 169.685 435.342 167.677C435.806 165.669 436.037 163.404 436.037 160.882C436.037 156.712 435.265 153.417 433.721 150.997C432.228 148.578 430.014 146.879 427.08 145.901C424.197 144.871 420.645 144.356 416.423 144.356H401.443ZM416.423 171.075H412.871V152.156H417.041C420.284 152.156 422.472 152.954 423.605 154.549C424.789 156.094 425.381 158.436 425.381 161.576C425.381 163.79 425.098 165.618 424.531 167.059C423.965 168.449 423.013 169.479 421.674 170.148C420.387 170.766 418.637 171.075 416.423 171.075ZM444.728 206.905V144.356H470.983V152.387H456.157V170.38H467.817V178.333H456.157V199.028H471.138V206.905H444.728ZM502.867 205.592C505.39 207.034 508.53 207.754 512.288 207.754C515.428 207.754 518.157 207.111 520.474 205.824C522.842 204.485 524.669 202.658 525.956 200.341C527.295 198.024 527.964 195.373 527.964 192.387C527.964 188.269 527.037 184.768 525.184 181.885C523.382 178.951 521.194 176.403 518.62 174.241L510.821 167.368C509.174 165.927 507.912 164.537 507.037 163.198C506.162 161.808 505.724 160.058 505.724 157.947C505.724 156.3 506.162 154.936 507.037 153.854C507.964 152.722 509.277 152.156 510.975 152.156C512.623 152.156 513.858 152.593 514.682 153.468C515.557 154.344 516.149 155.553 516.458 157.098C516.818 158.642 517.05 160.392 517.153 162.349L526.883 160.65C526.728 158.385 526.368 156.248 525.802 154.241C525.235 152.181 524.36 150.354 523.176 148.758C522.044 147.162 520.499 145.926 518.543 145.051C516.587 144.125 514.141 143.661 511.207 143.661C506.214 143.661 502.275 145 499.392 147.677C496.509 150.354 495.068 154.163 495.068 159.105C495.068 162.555 495.712 165.463 496.999 167.831C498.337 170.148 500.113 172.259 502.327 174.163L510.203 181.113C512.262 182.864 513.91 184.614 515.145 186.364C516.381 188.115 516.999 190.354 516.999 193.082C516.999 194.781 516.613 196.197 515.84 197.329C515.068 198.411 513.755 198.951 511.902 198.951C510.255 198.951 508.916 198.462 507.887 197.484C506.909 196.454 506.162 195.013 505.647 193.16C505.184 191.306 504.901 189.17 504.798 186.75L494.991 188.681C495.145 192.799 495.866 196.274 497.153 199.106C498.44 201.937 500.345 204.099 502.867 205.592ZM551.836 207.754C547.203 207.754 543.599 206.905 541.025 205.206C538.451 203.507 536.675 201.088 535.697 197.947C534.719 194.807 534.23 191.049 534.23 186.673V144.356H545.349V187.986C545.349 189.942 545.478 191.795 545.735 193.546C545.993 195.245 546.585 196.635 547.512 197.716C548.49 198.745 549.931 199.26 551.836 199.26C553.844 199.26 555.285 198.745 556.16 197.716C557.087 196.635 557.679 195.245 557.936 193.546C558.245 191.795 558.4 189.942 558.4 187.986V144.356H569.442V186.673C569.442 191.049 568.953 194.807 567.975 197.947C566.997 201.088 565.221 203.507 562.647 205.206C560.124 206.905 556.521 207.754 551.836 207.754ZM579.358 144.356L578.277 206.905H586.848L587.698 163.275L596.732 206.905H603.605L612.485 163.43L613.412 206.905H621.906L620.748 144.356H609.319L600.053 187.677L591.172 144.356H579.358ZM630.989 206.905L632.07 144.356H643.884L652.765 187.677L662.031 144.356H673.46L674.618 206.905H666.124L665.197 163.43L656.317 206.905H649.444L640.409 163.275L639.56 206.905H630.989ZM684.164 144.356V206.905H695.438V144.356H684.164ZM711.376 206.905V152.773H701.414V144.356H732.611V152.773H722.804V206.905H711.376ZM735.367 144.356V165.592H740.618L744.247 144.356H735.367ZM748.295 206.905V199.337L763.739 175.476C764.871 173.726 765.927 172.053 766.905 170.457C767.934 168.861 768.758 167.214 769.376 165.515C770.045 163.764 770.38 161.86 770.38 159.8C770.38 157.484 769.968 155.708 769.144 154.472C768.321 153.237 767.034 152.619 765.283 152.619C763.636 152.619 762.349 153.082 761.422 154.009C760.496 154.936 759.852 156.145 759.492 157.638C759.183 159.131 759.028 160.779 759.028 162.58V165.206H748.526V162.426C748.526 158.719 749.067 155.476 750.148 152.696C751.281 149.865 753.057 147.651 755.476 146.055C757.896 144.459 761.062 143.661 764.974 143.661C770.328 143.661 774.344 145.103 777.021 147.986C779.698 150.869 781.036 154.884 781.036 160.032C781.036 162.606 780.676 164.948 779.955 167.059C779.234 169.118 778.282 171.1 777.098 173.005C775.914 174.91 774.627 176.866 773.237 178.874L760.418 198.333H779.415V206.905H748.295Z" fill="white"/>
<rect width="148.671" height="34.4972" transform="matrix(0.849375 0.527789 -0.520809 0.853673 759.904 -0.191406)" fill="#73F9BC"/>
<path d="M767.085 11.3507L764.346 9.6488L754.406 25.9418L757.144 27.6437L767.085 11.3507ZM768.039 27.7878C768.693 26.7156 769.021 25.6708 769.022 24.6534C769.045 23.6309 768.818 22.7021 768.339 21.8671C767.875 21.0408 767.235 20.3745 766.421 19.8683C765.817 19.4931 765.19 19.2667 764.54 19.1892C763.898 19.0979 763.256 19.1502 762.613 19.3462C761.985 19.551 761.381 19.9057 760.802 20.4101C760.232 20.9007 759.709 21.5359 759.233 22.3157C758.757 23.0955 758.426 23.8599 758.241 24.6087C758.063 25.3436 758.026 26.0404 758.128 26.699C758.243 27.3663 758.482 27.9755 758.843 28.5264C759.213 29.0634 759.7 29.5195 760.304 29.8948C761.118 30.401 761.996 30.6773 762.936 30.7238C763.89 30.779 764.814 30.5659 765.708 30.0844C766.617 29.6117 767.393 28.8462 768.039 27.7878ZM765.174 26.0074C764.826 26.5784 764.405 26.9986 763.911 27.268C763.426 27.5234 762.919 27.6404 762.389 27.6188C761.86 27.5973 761.357 27.4381 760.879 27.1414C760.584 26.9581 760.328 26.7122 760.109 26.4036C759.891 26.095 759.73 25.7551 759.627 25.3839C759.533 24.9988 759.515 24.5842 759.573 24.14C759.644 23.7046 759.816 23.2641 760.088 22.8185C760.352 22.3868 760.655 22.0474 761 21.8005C761.367 21.5484 761.738 21.3851 762.112 21.3106C762.495 21.2223 762.873 21.2071 763.244 21.265C763.616 21.3229 763.949 21.4436 764.244 21.6268C764.721 21.9236 765.089 22.3055 765.346 22.7727C765.603 23.2399 765.724 23.7566 765.708 24.3227C765.7 24.8749 765.522 25.4365 765.174 26.0074Z" fill="#000E1B"/>
<path d="M781.945 29.8029L779.08 28.0225L771.365 33.7146L772.688 34.5942L774.255 25.0246L771.2 23.1264L769.969 34.2877L764.136 38.3255L766.959 40.0797L781.945 29.8029Z" fill="#000E1B"/>
<path d="M785.892 37.822L787.44 35.2846L797.955 36.5708L796.12 39.5791L790.48 38.823L793.688 43.5657L791.764 46.7186L785.892 37.822Z" fill="#171716"/>
<path d="M872.555 88.1703L871.007 90.7077L860.492 89.4212L862.327 86.4133L867.968 87.1694L864.76 82.4266L866.683 79.2737L872.555 88.1703Z" fill="#171716"/>
<path d="M799.697 58.5212C796.419 56.4843 795.085 54.5558 795.97 53.1058C796.457 52.3084 797.488 52.0998 798.713 52.5612C798.221 51.6807 798.164 50.7454 798.595 50.0387C799.17 49.0963 800.238 48.7857 801.676 49.1046C801.414 48.5553 801.292 47.9501 801.324 47.345C801.355 46.7398 801.538 46.1543 801.855 45.6424C802.13 45.176 802.51 44.7821 802.966 44.4924C803.422 44.2027 803.941 44.0252 804.481 43.9742C805.651 43.8264 806.869 44.1339 808.107 44.9032C809.418 45.718 810.297 46.7886 810.638 48.0002C811.546 47.6646 812.498 47.8318 813.609 48.522L812.194 50.8419C811.705 50.5154 811.17 50.267 810.607 50.1056C810.522 50.372 810.407 50.628 810.267 50.8689C809.993 51.3394 809.611 51.7371 809.153 52.03C808.695 52.3229 808.174 52.5026 807.631 52.5548C806.461 52.7023 805.271 52.3884 804.015 51.6078C803.576 51.3305 803.166 51.0088 802.792 50.648C802.278 50.5034 801.942 50.5193 801.798 50.7548C801.588 51.099 801.74 51.3438 802.268 51.672L805.855 53.9008C807.949 55.2019 808.547 56.8981 807.541 58.5476C806.203 60.7397 803.248 60.7275 799.697 58.5212ZM800.939 56.5686C802.887 57.7793 804.004 58.0483 804.391 57.4139C804.601 57.0695 804.413 56.6778 803.903 56.361L801.208 54.6862C799.988 53.9282 799.356 53.8107 799.047 54.3179C798.726 54.8442 799.336 55.573 800.939 56.5686ZM806.908 46.908C806.052 46.3762 805.262 46.5599 804.731 47.4299C804.212 48.2816 804.419 49.1355 805.238 49.6446C806.058 50.1538 806.877 49.9631 807.408 49.0932C807.939 48.2232 807.764 47.4392 806.908 46.9074L806.908 46.908Z" fill="#171716"/>
<path d="M810.515 57.9906C810.182 56.5595 810.464 55.1101 811.37 53.6243C812.232 52.2109 813.395 51.3341 814.841 50.9817C816.297 50.6118 817.721 50.8717 819.122 51.7425C820.415 52.5459 821.228 53.6006 821.514 54.9029C821.818 56.2163 821.565 57.5345 820.737 58.8931C820.471 59.3281 820.192 59.7042 819.985 60.001L813.923 56.2337C813.404 57.5358 813.699 58.4941 814.992 59.2974C815.844 59.7836 816.847 59.9234 817.792 59.6876L818.311 62.4593C816.682 62.947 815.091 62.6326 813.252 61.4901C811.777 60.5742 810.858 59.4038 810.515 57.9906ZM815.104 54.4201L818.181 56.3322C818.783 55.3064 818.594 54.4634 817.72 53.9202C816.845 53.377 815.942 53.5411 815.104 54.4201Z" fill="#171716"/>
<path d="M820.821 64.3964C820.489 62.9653 820.77 61.5159 821.677 60.03C822.539 58.6166 823.702 57.7397 825.147 57.3874C826.603 57.0176 828.027 57.2774 829.429 58.1483C830.722 58.9516 831.534 60.0064 831.82 61.3087C832.124 62.622 831.872 63.9404 831.043 65.299C830.778 65.7339 830.498 66.11 830.292 66.4068L824.229 62.6391C823.711 63.9412 824.005 64.8995 825.298 65.7028C826.151 66.1891 827.154 66.3289 828.098 66.0931L828.617 68.8648C826.988 69.3525 825.397 69.0381 823.558 67.8956C822.083 66.9796 821.164 65.8094 820.821 64.3964ZM825.411 60.8259L828.488 62.738C829.089 61.7118 828.9 60.8693 828.026 60.3262C827.152 59.7831 826.248 59.9467 825.41 60.8257L825.411 60.8259Z" fill="#171716"/>
<path d="M839.017 69.4308L839.239 77.3406L835.596 75.0773L835.587 70.0732L834.482 70.3611L832.702 73.2788L829.643 71.3776L837.713 58.1493L840.772 60.0504L836.582 66.9185L841.094 65.6979L844.771 67.9833L839.017 69.4308Z" fill="#171716"/>
<path d="M840.242 77.962L848.312 64.7336L851.372 66.6348L843.301 79.8631L840.242 77.962Z" fill="#171716"/>
<path d="M846.899 80.6006C846.566 79.1695 846.848 77.7201 847.754 76.2342C848.617 74.8208 849.779 73.9441 851.225 73.5917C852.681 73.2219 854.105 73.4817 855.506 74.3526C856.799 75.1559 857.612 76.2107 857.898 77.513C858.202 78.8263 857.95 80.1446 857.121 81.5032C856.856 81.9382 856.576 82.3144 856.37 82.6112L850.306 78.8432C849.788 80.1453 850.082 81.1036 851.375 81.907C852.228 82.3931 853.231 82.5329 854.175 82.2972L854.694 85.069C853.066 85.5567 851.474 85.2422 849.636 84.0998C848.16 83.1837 847.242 82.0138 846.899 80.6006ZM851.488 77.0301L854.565 78.9422C855.166 77.9159 854.977 77.0735 854.103 76.5304C853.229 75.9873 852.326 76.1511 851.488 77.0301Z" fill="#171716"/>
</g>
<defs>
<clipPath id="clip0_112_20">
<rect width="886" height="231" fill="white"/>
</clipPath>
</defs>
</svg>
