<svg width="136" height="48" viewBox="0 0 136 48" fill="none" xmlns="http://www.w3.org/2000/svg">
<path d="M59.804 35.184V12.912H68.476C70.7587 12.912 72.7533 13.3707 74.46 14.288C76.1667 15.2053 77.4787 16.496 78.396 18.16C79.3347 19.824 79.804 21.7867 79.804 24.048C79.804 26.3093 79.3347 28.272 78.396 29.936C77.4787 31.6 76.1667 32.8907 74.46 33.808C72.7533 34.7253 70.7587 35.184 68.476 35.184H59.804ZM65.02 30.672H68.156C70.0973 30.672 71.644 30.096 72.796 28.944C73.948 27.792 74.524 26.16 74.524 24.048C74.524 21.936 73.948 20.304 72.796 19.152C71.644 18 70.0973 17.424 68.156 17.424H65.02V30.672Z" fill="#4969E4"/>
<path d="M93.4168 35.696C91.1554 35.696 89.1821 35.1947 87.4967 34.192C85.8114 33.1893 84.4994 31.8133 83.5607 30.064C82.6221 28.2933 82.1528 26.288 82.1528 24.048C82.1528 21.7867 82.6221 19.7813 83.5607 18.032C84.4994 16.2827 85.8114 14.9067 87.4967 13.904C89.1821 12.9013 91.1448 12.4 93.3848 12.4C95.9661 12.4 98.1421 13.0293 99.9128 14.288C101.683 15.5253 102.846 17.2747 103.401 19.536H98.0888C97.7688 18.7893 97.2141 18.1813 96.4248 17.712C95.6568 17.2427 94.6434 17.008 93.3848 17.008C91.5714 17.008 90.1207 17.6373 89.0327 18.896C87.9661 20.1547 87.4328 21.872 87.4328 24.048C87.4328 26.1813 87.9767 27.8987 89.0648 29.2C90.1528 30.48 91.6568 31.12 93.5768 31.12C94.6008 31.12 95.4861 30.9387 96.2327 30.576C97.0007 30.192 97.5981 29.6907 98.0247 29.072C98.4514 28.432 98.6647 27.7387 98.6647 26.992V26.736H93.3848V22.448H103.785V25.744C103.785 27.6 103.379 29.2853 102.569 30.8C101.758 32.2933 100.574 33.488 99.0168 34.384C97.4808 35.2587 95.6141 35.696 93.4168 35.696Z" fill="#4969E4"/>
<path d="M115.463 35.696C112.733 35.696 110.546 35.0773 108.903 33.84C107.261 32.6027 106.205 30.8747 105.735 28.656H110.887C111.122 29.424 111.634 30.0533 112.423 30.544C113.213 31.0347 114.205 31.28 115.399 31.28C116.509 31.28 117.405 31.0773 118.087 30.672C118.77 30.2667 119.111 29.7013 119.111 28.976C119.111 28.528 119.005 28.144 118.791 27.824C118.599 27.504 118.205 27.2267 117.607 26.992C117.031 26.736 116.157 26.512 114.983 26.32L112.615 25.904C110.567 25.5413 109.021 24.8693 107.975 23.888C106.951 22.8853 106.439 21.4347 106.439 19.536C106.439 18.064 106.823 16.7947 107.591 15.728C108.359 14.6613 109.405 13.84 110.727 13.264C112.05 12.688 113.522 12.4 115.143 12.4C117.597 12.4 119.623 12.976 121.223 14.128C122.823 15.28 123.794 16.9333 124.135 19.088H118.983C118.791 18.3627 118.375 17.808 117.735 17.424C117.117 17.0187 116.274 16.816 115.207 16.816C114.098 16.816 113.223 17.0187 112.583 17.424C111.965 17.8293 111.655 18.3733 111.655 19.056C111.655 19.6747 111.911 20.1653 112.423 20.528C112.935 20.8907 113.959 21.2107 115.495 21.488L117.831 21.872C122.183 22.6187 124.359 24.8053 124.359 28.432C124.359 29.9893 123.975 31.312 123.207 32.4C122.461 33.488 121.415 34.3093 120.071 34.864C118.749 35.4187 117.213 35.696 115.463 35.696Z" fill="#4969E4"/>
<path d="M26.5883 5.12617C24.9143 4.15967 22.7737 4.73324 21.8072 6.40726C20.8407 8.08129 21.4143 10.2219 23.0883 11.1884C24.5351 12.0237 26.3305 11.7086 27.4151 10.5269L35.442 15.1309C35.0123 16.6379 35.6406 18.3003 37.0594 19.1194C37.3015 19.2593 37.5535 19.3668 37.8102 19.4435L37.8087 28.7496C36.9817 28.9962 36.2438 29.5472 35.7783 30.3536C35.294 31.1924 35.1964 32.1484 35.4302 33.0151L27.387 37.6285C27.1586 37.3862 26.8915 37.1726 26.5883 36.9976C24.9143 36.0311 22.7737 36.6046 21.8072 38.2787C20.8407 39.9527 21.4143 42.0933 23.0883 43.0597C24.7623 44.0262 26.9029 43.4527 27.8694 41.7787C28.298 41.0362 28.4238 40.202 28.2849 39.4191L36.4813 34.7179C36.656 34.8732 36.849 35.0132 37.0594 35.1346C38.7334 36.1011 40.874 35.5276 41.8405 33.8535C42.807 32.1795 42.2334 30.039 40.5594 29.0725C40.3172 28.9327 40.0654 28.8251 39.8087 28.7484L39.8102 19.4422C40.6371 19.1956 41.375 18.6446 41.8405 17.8384C42.807 16.1643 42.2334 14.0238 40.5594 13.0573C39.2328 12.2914 37.6134 12.4926 36.5173 13.442L28.2929 8.72475C28.522 7.32916 27.8855 5.87514 26.5883 5.12617Z" fill="#4969E4"/>
<path d="M14.9319 30.1036C13.8273 30.1036 12.9319 30.999 12.9319 32.1036C12.9319 33.2081 13.8273 34.1036 14.9319 34.1036L24.9319 34.1036C26.0365 34.1036 26.9319 33.2081 26.9319 32.1036C26.9319 30.999 26.0365 30.1036 24.9319 30.1036L14.9319 30.1036Z" fill="#4969E4"/>
<path d="M24.9319 26.0956C26.0365 26.0956 26.9319 25.2001 26.9319 24.0956C26.9319 22.991 26.0365 22.0956 24.9319 22.0956H10.9319C9.82732 22.0956 8.93188 22.991 8.93188 24.0956C8.93188 25.2001 9.82732 26.0956 10.9319 26.0956H24.9319Z" fill="#4969E4"/>
<path d="M24.9319 18.0883L6.93188 18.0883C5.82732 18.0883 4.93188 17.1929 4.93188 16.0883C4.93188 14.9838 5.82732 14.0883 6.93188 14.0883H24.9319C26.0365 14.0883 26.9319 14.9838 26.9319 16.0883C26.9319 17.1929 26.0365 18.0883 24.9319 18.0883Z" fill="#4969E4"/>
</svg>
