<?xml version="1.0" encoding="utf-8"?>
<svg xmlns="http://www.w3.org/2000/svg" viewBox="0 0 425.828 439.181" width="425.828" height="439.181">
  <defs>
    <style>.b{fill:#14254c}.c{fill:#e21e36}.d{fill:#fab16a}.e{fill:#fff}.h{fill:#15254b}</style>
  </defs>
  <g transform="translate(-1180.778 -169)">
    <circle cx="159.5" cy="159.5" r="159.5" transform="translate(1287.606 183)" fill="#182886" />
    <path d="M1405.579 331.212l-20.164 20.158 17.279 6.914 21.314-21.886v-27.651h-18.429z" />
    <path class="b" d="M1363.083 446.533a13.722 13.722 0 01-12.273-7.559 13.724 13.724 0 016.1-18.429 82.409 82.409 0 0028.947-24.273 82.383 82.383 0 0015.564-38.919 13.724 13.724 0 0115.3-11.934 13.72 13.72 0 0111.934 15.3 109.815 109.815 0 01-20.776 51.93 110.008 110.008 0 01-38.64 32.417 13.722 13.722 0 01-6.156 1.467z" />
    <path class="c" d="M1462.575 447.885l-52.994 6.336-10.464-80.311a37.129 37.129 0 0136.672-42.948 37.129 37.129 0 0136.672 42.948z" />
    <path class="b" d="M1485.026 367.205c-15.165 0-27.684-5.983-32.258-8.5a13.724 13.724 0 01-5.432-18.635 13.726 13.726 0 0118.635-5.432c2.739 1.5 17.046 8.7 29.824 2.832a29.119 29.119 0 0011.156-9.646c10.644-13.995 8.849-32.258 7.579-39.465a13.732 13.732 0 0111.143-15.9 13.731 13.731 0 0115.9 11.143c1.888 10.757 4.435 38.215-12.771 60.832a56 56 0 01-21.547 17.97 52.592 52.592 0 01-22.229 4.801z" />
    <path class="c" d="M1512.803 242.449l-1.064 55.614 37.437-4.813-18.276-54.988z" />
    <path class="d" d="M1469.941 608.028a8.145 8.145 0 01-3.723-.9 8.23 8.23 0 01-3.61-11.069l34.764-68.444a8.23 8.23 0 0111.069-3.61 8.231 8.231 0 013.61 11.069l-34.764 68.445a8.227 8.227 0 01-7.346 4.509z" />
    <path class="d" d="M1462.076 599.304a8.388 8.388 0 008.477 8.876l3.184-.04 28.681-.359a5.178 5.178 0 005.053-4.381 5.177 5.177 0 00-4.321-5.91l-15.258-2.666-15.757-3.238a8.376 8.376 0 00-10.059 7.719zM1252.222 608.027a8.207 8.207 0 01-5.445-2.061 8.236 8.236 0 01-.731-11.621l65.287-74.056a8.236 8.236 0 0111.621-.731 8.236 8.236 0 01.732 11.621l-65.287 74.056a8.208 8.208 0 01-6.177 2.792z" />
    <path class="d" d="M1260.499 599.304a8.388 8.388 0 01-8.477 8.876l-3.185-.04-28.677-.358a5.178 5.178 0 01-5.053-4.381 5.177 5.177 0 014.322-5.91l15.258-2.666 15.756-3.238a8.373 8.373 0 0110.059 7.719z" />
    <path d="M1449.989 465.746l-46.99 53.539a2.828 2.828 0 00-.259.352l-37.271 62.667a2.378 2.378 0 01-2.028 1.163l-144.854 1.1a2.378 2.378 0 01-1.7-4.062l76.781-76.549a2.409 2.409 0 01.658-.465l116.9-55.48a2.374 2.374 0 011.882-.066l35.947 14.014a2.377 2.377 0 01.934 3.787z" />
    <path d="M1455.6 436.905l77.307 67.753a2.38 2.38 0 01.692 2.533l-25.244 76.3a2.379 2.379 0 01-2.267 1.629l-91.322-.492a2.374 2.374 0 01-2.2-3.238l25.377-65.313a2.427 2.427 0 00.14-1.19l-9.733-69.515a2.387 2.387 0 011.729-2.625l23.342-6.356a2.362 2.362 0 012.179.514z" />
    <path class="b" d="M1404.402 428.862l62.208-6.11-2.719 22a28.762 28.762 0 01-27.75 25.224 28.769 28.769 0 01-29.246-24.486z" />
    <path class="b" d="M1508.947 465.487l-32.1 27.7a1.984 1.984 0 01-2.952-.412l-30.436-46.359a1.975 1.975 0 01.6-2.766l17.512-10.93a1.97 1.97 0 012.134.027l45.036 29.585a1.977 1.977 0 01.206 3.155zM1372.796 477.647l-13.1-11.92a1.981 1.981 0 01.479-3.251l50.5-24.187a1.988 1.988 0 012.247.373l13.244 13.044a1.982 1.982 0 01-.572 3.218l-50.64 23.063a1.97 1.97 0 01-2.158-.34z" />
    <path class="b" d="M1385.772 476.363l35.07-27.683a1.9 1.9 0 01.652-.339l31.114-9.414a1.985 1.985 0 012.547 1.689l5.771 54.576a1.98 1.98 0 01-2.44 2.134l-71.955-17.485a1.979 1.979 0 01-.759-3.478z" />
    <g transform="translate(1405.286 251.75)">
      <path class="c" d="M38.454 19.712L58.791 8.15a12.233 12.233 0 0113.955 1.3 12.25 12.25 0 0016.481-.605L98.242.003l3.863 5.957-12.505 11a12.242 12.242 0 01-16.408-.213l-1.675-1.556a12.229 12.229 0 00-12.286-2.6z" />
      <path class="c" d="M38.767 19.54l19.692-2.414a12.256 12.256 0 0110.2 3.55l3.843 3.89a12.242 12.242 0 0014.414 2.227l13.057-6.881 3.8 6.821-18.163 8.376a12.241 12.241 0 01-14.666-3.444l-4.76-5.917a12.253 12.253 0 00-8.443-4.521z" />
      <path d="M12.386 79.455l27.65 24.193 30.4-19.978-14.533-8.49a11.1 11.1 0 01-5.5-9.581V49.504H12.388v29.951z" />
      <path class="b" d="M0 38.554v29.379a11.517 11.517 0 0011.515 11.521h10.371a28.8 28.8 0 0028.8-28.8V21.275A11.517 11.517 0 0039.165 9.76H28.794A28.794 28.794 0 000 38.554z" />
      <path class="d" d="M37.53 49.271v-1.852a21.544 21.544 0 00-21.541-21.541 21.456 21.456 0 00-13.157 4.487 28.66 28.66 0 00-1.19 8.184v26.786a21.442 21.442 0 0014.341 5.471A21.545 21.545 0 0037.53 49.271z" />
      <path class="e" d="M15.77 61.77l-.259-2.061c.14-.02.286-.033.445-.053a8.118 8.118 0 005.013-2.042 7.525 7.525 0 002.4-4.507l2.054.292a9.588 9.588 0 01-3.078 5.771 10.051 10.051 0 01-6.163 2.546z" />
      <path d="M39.172 42.297a28.8 28.8 0 00-25.011-28.541A28.775 28.775 0 000 38.556v29.379a11.292 11.292 0 00.073 1.263 28.764 28.764 0 0010.3 1.9 28.8 28.8 0 0028.799-28.801z" fill="none" />
      <path d="M3.923 54.111h10.365V36.253z" fill="#dc7f1b" />
      <path class="h" d="M1.383 32.218h48.446v2.307H1.383zM0 42.589h49.823v2.307H0zM0 63.325h40.03v2.307H0zM0 52.954h49.823v2.307H0z" />
      <path class="e" d="M29.179 40.535h-2.36a1.677 1.677 0 01-1.675-1.676v-.113a1.677 1.677 0 011.675-1.676h2.36a1.677 1.677 0 011.675 1.676v.113a1.677 1.677 0 01-1.675 1.676zM5.678 40.535h-2.36a1.677 1.677 0 01-1.675-1.676v-.113a1.677 1.677 0 011.675-1.676h2.36a1.677 1.677 0 011.675 1.676v.113a1.677 1.677 0 01-1.675 1.676z" />
      <circle cx="1.755" cy="1.755" r="1.755" transform="translate(24.193 37.005)" />
      <circle cx="1.755" cy="1.755" r="1.755" transform="translate(1.057 37.005)" />
    </g>
    <path class="d" d="M1490.744 223.349l-36.945-11.94-100.236-24.028-72.566-17.212a2.562 2.562 0 00-3.065 1.841 2.561 2.561 0 001.755 3.1l71.6 20.955 99.133 28.249 38.048 7.725z" />
    <path d="M1345.744 193.317l1.642-6.256a1.827 1.827 0 012.234-1.3l4.109 1.077a1.827 1.827 0 011.3 2.234l-1.642 6.256a1.827 1.827 0 01-2.234 1.3l-4.109-1.077a1.833 1.833 0 01-1.3-2.234zM1277.3 173.659l.917-3.5a1.557 1.557 0 011.9-1.111l4.155 1.09a1.558 1.558 0 011.11 1.9l-.917 3.5a1.557 1.557 0 01-1.9 1.11l-4.155-1.09a1.552 1.552 0 01-1.11-1.899zM1557.873 253.266l3.763-14.347-71.1-15.644-2.287 8.729z" />
    <path d="M1480.107 243.524l8.842-33.727a1.481 1.481 0 011.808-1.057l3.324.871a1.482 1.482 0 011.057 1.808l-8.842 33.728a1.482 1.482 0 01-1.808 1.057l-3.324-.871a1.476 1.476 0 01-1.057-1.809z" />
    <path class="c" d="M1532.715 223.182l-12.286-2.34a5.845 5.845 0 00-6.9 6.389l.479 4.255a6.719 6.719 0 005.751 5.9l9.168 1.263a6.7 6.7 0 007.373-4.82l.944-3.318a5.839 5.839 0 00-4.529-7.329z" />
    <path class="c" d="M1519.452 252.082l-7.951-5.777a9.522 9.522 0 01-3.79-9.314l1.981-11.635a2.028 2.028 0 013.258-1.25l1.09.864a2.031 2.031 0 01.738 1.23zM1325.207 441.739l44.005-34.026 18.462 32.916-55.035 18.13z" />
    <g>
      <path class="d" d="M1299.253 415.565l-23.03-31.26-54.543-87.466-39.312-63.378a2.565 2.565 0 01.771-3.49 2.554 2.554 0 013.5.685l42.556 61.271 58.193 85.079 19.38 33.647z" />
      <path d="M1224.837 287.544l-5.418 3.537a1.831 1.831 0 00-.532 2.533l2.32 3.55a1.832 1.832 0 002.533.532l5.418-3.537a1.832 1.832 0 00.532-2.533l-2.32-3.55a1.835 1.835 0 00-2.533-.532zM1184.515 228.847l-3.031 1.981a1.556 1.556 0 00-.452 2.154l2.347 3.6a1.557 1.557 0 002.154.453l3.032-1.982a1.557 1.557 0 00.452-2.154l-2.347-3.6a1.557 1.557 0 00-2.155-.452zM1348.888 469.769l-12.419 8.111-37.357-62.494 7.552-4.934z" />
      <path d="M1315.012 399.084l-29.186 19.074a1.481 1.481 0 00-.432 2.048l1.882 2.879a1.48 1.48 0 002.047.432l29.186-19.074a1.48 1.48 0 00.432-2.047l-1.881-2.879a1.48 1.48 0 00-2.048-.433z" />
    </g>
    <path class="c" d="M1316.524 465.54l-6.11-10.916a5.844 5.844 0 013.876-8.57l4.188-.9a6.708 6.708 0 017.419 3.59l4.1 8.3a6.717 6.717 0 01-2.234 8.523l-2.852 1.941a5.835 5.835 0 01-8.387-1.968z" />
    <path class="c" d="M1339.733 443.807l-8-5.711a9.512 9.512 0 00-10.032-.645l-10.411 5.564a2.027 2.027 0 00-.153 3.484l1.163.758a2.032 2.032 0 001.4.313z" />
  </g>
</svg>