<svg width="136" height="136" viewBox="0 0 136 136" fill="none" xmlns="http://www.w3.org/2000/svg">
<path fill-rule="evenodd" clip-rule="evenodd" d="M1 69C1 31.9519 30.9519 2 68 2H135V69C135 106.048 105.048 136 68 136C30.9519 136 1 106.048 1 69ZM19.5839 71.7648C20.983 96.2577 40.6503 115.925 65.1432 117.324V71.7648H19.5839ZM70.7647 71.8569H116.324C114.925 96.3498 95.2575 116.017 70.7647 117.416V71.8569ZM116.384 20.524H70.7647V66.1431H116.384V20.524Z" fill="#F0047F"/>
<path d="M65.1432 117.324C40.6503 115.925 20.983 96.2576 19.5839 71.7648H65.1432V117.324Z" fill="white"/>
<path d="M70.7647 71.8569H116.324C114.925 96.3497 95.2575 116.017 70.7647 117.416V71.8569Z" fill="white"/>
<path d="M70.7647 20.524H116.384V66.1431H70.7647V20.524Z" fill="white"/>
</svg>
