<?xml version="1.0" encoding="utf-8"?>
<!-- Generator: Adobe Illustrator 26.0.3, SVG Export Plug-In . SVG Version: 6.00 Build 0)  -->
<svg version="1.1" id="a" xmlns="http://www.w3.org/2000/svg" xmlns:xlink="http://www.w3.org/1999/xlink" x="0px" y="0px"
	 viewBox="0 0 568 200" style="enable-background:new 0 0 568 200;" xml:space="preserve">
<style type="text/css">
	.st0{fill:#333333;}
	.st1{fill-rule:evenodd;clip-rule:evenodd;fill:#333333;}
	
		.st2{fill-rule:evenodd;clip-rule:evenodd;fill:#333333;stroke:#333333;stroke-width:2;stroke-linecap:round;stroke-linejoin:round;}
	.st3{fill:#F4DD4B;}
	.st4{fill-rule:evenodd;clip-rule:evenodd;}
</style>
<path class="st0" d="M552,124.5c0,16.2,0,32.4,0,48.6c0,6.6-2.3,7.9-8.1,4.6c-11.6-6.6-23.2-13.3-34.8-19.8c-4.2-2.3-6.1-5.4-6-10.3
	c0.2-14.3,0-28.5,0.1-42.8c0-5.1-1.8-8.6-6.4-11s-9.1-5.1-13.5-7.7c-3.3-2-6.6-2.1-9.9-0.1c-5,2.9-10.1,5.8-15.2,8.7
	c-3,1.7-4.3,4-4.3,7.6c0.1,23.5,0,46.9-0.1,70.4c0,7.2-2.2,8.4-8.5,4.8c-11.5-6.6-22.9-13.2-34.5-19.6c-4.2-2.3-6.1-5.4-6-10.3
	c0.2-14.3,0-28.5,0.1-42.8c0-5.1-1.8-8.6-6.4-11c-4.5-2.3-8.9-4.9-13.2-7.5c-3.7-2.3-7.2-2.2-11,0.1c-4.3,2.6-8.7,5.2-13.2,7.6
	c-4.4,2.3-6.3,5.7-6.2,10.6c0.2,14.5,0,29.1,0.1,43.6c0,4.4-1.6,7.3-5.4,9.4c-12.1,6.8-24.1,13.8-36.2,20.6
	c-4.8,2.7-7.4,1.2-7.4-4.3C306,141,306,108,305.9,75.1c0-4,1.6-6.9,5.1-8.9c21.3-12.2,42.6-24.4,63.8-36.6c3.5-2,6.8-2,10.3,0.1
	c13.7,7.9,27.5,15.7,41.2,23.7c2.1,1.2,3.5,1.2,5.6,0c13.3-7.8,26.8-15.3,40.1-23.2c4.3-2.5,8-2.6,12.4,0
	c20.6,12,41.4,23.9,62.1,35.7c4.1,2.3,5.8,5.5,5.8,10.1c-0.1,16.2,0,32.4,0,48.6H552L552,124.5z"/>
<path class="st0" d="M19.3,124.2c0-15.9,0.1-31.9-0.1-47.8c-0.1-5,1.7-8.2,6.1-10.7C46.2,53.8,67,41.8,87.7,29.8
	c3.8-2.2,7.1-2.3,10.9-0.1c20.9,12.1,41.8,24.1,62.8,36c4.1,2.3,5.9,5.4,5.9,10.1c-0.1,32.4-0.1,64.8-0.2,97.3c0,6.6-2.4,8-8.1,4.8
	c-11.7-6.7-23.4-13.5-35.2-20c-3.9-2.2-5.8-5.1-5.7-9.7c0.2-14.4,0-28.8,0.1-43.2c0.1-5.1-1.7-8.7-6.3-11c-4.7-2.4-9.3-5.2-13.9-7.9
	c-3.2-1.9-6.3-1.9-9.6,0c-4.9,2.9-9.8,5.8-14.8,8.5c-3.9,2.1-5.3,5.3-5.3,9.6c0.1,14.5-0.1,29.1,0.1,43.6c0.1,4.9-1.8,8-6,10.3
	c-11.7,6.5-23.2,13.2-34.8,19.8c-5.7,3.3-8.2,1.9-8.2-4.6C19.4,156.9,19.4,140.6,19.3,124.2L19.3,124.2L19.3,124.2z"/>
<polygon class="st1" points="145.3,65 137.6,65 142.1,72.9 149.8,72.9 145.3,65 "/>
<polygon class="st2" points="202.4,89.7 200.7,86.5 195.5,77.6 189.8,77.7 191.3,80.4 176.7,80.5 173.5,75 162.8,75.1 220.7,166.1 
	242.4,127.3 225,97.4 223.2,94.3 219.2,87.4 219.2,87.4 "/>
<path class="st3" d="M256.3,80.9c4.6-7.9,9.2-15.8,13.7-23.7c1-1.7,2.2-2.4,4.2-2.4c13.4,0.1,26.8,0,40.1,0c3.8,0,4.8,1.5,3.2,5
	c-4.2,7.1-8.5,14.1-12.3,21.4c-4.5,7.7-9,15.3-13.5,23c-9.9,17.2-19.8,34.4-29.8,51.5c-4.9,8.2-9.7,16.4-15.3,24.2
	c-1.2,1.7-2.5,3.4-3.9,4.9c-3.6,3.8-6.6,3.8-10.2-0.1c-1.7-1.8-7.2-9.8-4.3-5.1c-4.7-7.4-10.4-15.8-15.1-23.2
	c1.5-3.5,18-33.3,22.3-40.8C235.9,115.1,250,91.8,256.3,80.9L256.3,80.9z"/>
<polyline class="st4" points="213.2,156.4 236,114.5 229.8,104.1 "/>
<g>
	<polygon class="st2" points="168.3,51.7 161.9,51.8 165.8,58.2 168.1,58.2 171.7,64.2 182.2,64 175.8,53.4 169.4,53.6 168.3,51.7 	
		"/>
	<polygon class="st2" points="167.4,20.8 161.1,20.9 164.9,27.2 171.2,27.1 167.4,20.8 	"/>
	<polygon class="st2" points="156.2,29.7 150.9,29.8 154.1,35 159.4,34.9 156.2,29.7 	"/>
	<polygon class="st2" points="178.6,10.1 174.2,10.2 176.5,14 180.9,13.9 178.6,10.1 	"/>
	<polygon class="st2" points="168.4,38.8 162.8,39 165.7,43.8 171.3,43.6 168.4,38.8 	"/>
	<polygon class="st2" points="195.6,41.9 186.6,42.1 185.1,39.7 177,39.9 181.3,46.9 186.8,46.8 191,53.7 202.6,53.5 195.6,41.9 	
		"/>
	<polygon class="st2" points="186.1,26.3 178.3,26.5 182.4,33.3 190.2,33.1 186.1,26.3 	"/>
	<polygon class="st2" points="151.6,12 148,12.1 149.9,15.2 153.5,15.1 151.6,12 	"/>
	<polygon class="st2" points="211,66 196.7,66.3 199.6,70.9 203.9,70.9 206.6,75.2 216.5,75 211,66 	"/>
</g>
<polygon class="st2" points="154.9,41.5 150.5,41.6 152.8,45.4 157.2,45.3 154.9,41.5 "/>
</svg>
