<svg width="210" height="147" xmlns="http://www.w3.org/2000/svg" fill-rule="evenodd" clip-rule="evenodd" stroke-linejoin="round" stroke-miterlimit="1.414">
  <g fill-rule="nonzero">
    <path d="M88.976 118.165L0 67.564l43.41-27.57 45.566 78.171zM138.05 19.846h-16.157L105.001 49.18 87.915 19.846h-12.78L105.162.775l32.888 19.071zM210 61.563l-89.291 58.038 47.516-82.26L210 61.563z" fill="#17568c"/>
    <path d="M168.225 37.341l-47.515 82.26-13.633 8.86-18.101-10.296L43.41 39.994l31.725-20.148h12.78l17.086 29.334 16.892-29.334h16.157l30.175 17.495z" fill="#fff"/>
    <path d="M75.135 19.846L43.41 39.994 31.668 19.846h43.467zM120.788 119.601l-15.379 26.624-16.355-28.06 18.102 10.296 13.632-8.86zM178.332 19.846l-10.107 17.495-30.175-17.495h40.282z" fill="#2cb77f"/>
  </g>
</svg>
