<?xml version="1.0" standalone="no"?>
<!DOCTYPE svg PUBLIC "-//W3C//DTD SVG 20010904//EN"
 "http://www.w3.org/TR/2001/REC-SVG-20010904/DTD/svg10.dtd">
<svg version="1.0" xmlns="http://www.w3.org/2000/svg"
 width="260.000000pt" height="260.000000pt" viewBox="0 0 260.000000 260.000000"
 preserveAspectRatio="xMidYMid meet">
<metadata>
Created by potrace 1.14, written by Peter Selinger 2001-2017
</metadata>
<g transform="translate(0.000000,260.000000) scale(0.100000,-0.100000)"
fill="#000000" stroke="none">
<path d="M1324 2586 c-46 -21 -69 -50 -132 -166 -45 -84 -56 -113 -55 -147 2
-59 37 -116 87 -144 39 -22 51 -23 245 -24 216 -1 253 5 298 47 69 63 70 184
2 244 -13 12 -91 61 -172 109 -160 95 -209 110 -273 81z"/>
<path d="M711 2422 c-47 -7 -113 -59 -138 -106 -28 -55 -28 -120 1 -180 52
-106 163 -144 268 -93 128 64 154 220 53 322 -51 50 -111 69 -184 57z"/>
<path d="M225 1924 c-45 -15 -79 -45 -99 -89 -24 -50 -23 -347 2 -394 50 -99
182 -128 260 -57 23 21 112 161 112 177 0 5 5 9 10 9 6 0 10 4 10 9 0 5 15 36
34 68 42 71 50 109 37 161 -14 49 -43 87 -84 109 -41 21 -228 26 -282 7z"/>
<path d="M1265 1927 c-41 -13 -92 -64 -106 -105 -26 -77 -7 -118 278 -592 25
-41 59 -100 76 -130 16 -30 40 -71 53 -91 24 -38 78 -88 97 -90 7 0 24 -3 40
-5 45 -8 104 14 142 53 19 20 35 40 35 44 0 5 34 66 76 136 42 70 88 148 102
173 14 24 48 83 77 130 105 175 153 266 158 300 7 60 -21 117 -81 161 l-33 24
-443 1 c-252 0 -454 -4 -471 -9z"/>
<path d="M800 1670 c-48 -25 -54 -33 -170 -230 -57 -96 -141 -240 -188 -320
-143 -242 -142 -239 -138 -298 3 -38 12 -62 30 -87 54 -71 40 -69 541 -70
l450 0 37 23 c51 32 80 82 81 140 1 54 -9 76 -108 242 -18 30 -69 116 -112
190 -44 74 -113 190 -152 257 -53 90 -82 128 -109 145 -46 29 -115 32 -162 8z"/>
<path d="M2263 1249 c-41 -12 -91 -61 -121 -120 -13 -24 -34 -62 -47 -84 -63
-102 -94 -162 -98 -191 -10 -68 49 -163 113 -181 14 -4 77 -7 142 -7 110 0
118 1 156 27 64 45 75 82 76 260 1 83 -3 167 -8 186 -24 82 -126 134 -213 110z"/>
<path d="M1764 584 c-139 -49 -189 -231 -94 -346 138 -168 412 -52 387 164 -9
75 -53 140 -119 174 -40 21 -126 25 -174 8z"/>
<path d="M898 487 c-75 -18 -129 -100 -121 -182 7 -69 48 -113 168 -179 17 -9
39 -22 50 -29 156 -98 196 -111 269 -83 25 10 55 31 69 50 47 60 127 225 127
259 -1 52 -34 113 -80 143 l-41 28 -202 1 c-111 0 -219 -3 -239 -8z"/>
</g>
</svg>
