<?xml version="1.0" encoding="UTF-8"?>
<svg width="285px" height="80px" viewBox="0 0 285 80" version="1.1" xmlns="http://www.w3.org/2000/svg" xmlns:xlink="http://www.w3.org/1999/xlink">
    <g stroke="none" stroke-width="1" fill="none" fill-rule="evenodd">
        <g transform="translate(2.300000, 2.250000)" fill-rule="nonzero" stroke="#FFFFFF" stroke-width="2">
            <path d="M29.9,21.4409465 L29.9,2.6 L45.25,2.6 L45.25,60.25 L29.9,60.25 L29.9,56.6501566 C28.7994226,57.6995402 27.5641168,58.5549307 26.1963156,59.2135017 C24.0312864,60.2559231 21.5956181,60.775 18.9,60.775 C14.9705242,60.775 11.4891782,59.8519158 8.47673697,58.0021712 C5.46419466,56.1523645 3.12386419,53.5475899 1.4666665,50.2068898 C-0.179861283,46.8876989 -1,43.073403 -1,38.775 C-1,34.5259087 -0.192118586,30.7731692 1.43057281,27.5277864 C3.06360471,24.2617226 5.36749939,21.719494 8.33102187,19.9202125 C11.2927879,18.1219974 14.7224838,17.225 18.6,17.225 C21.3459093,17.225 23.8317236,17.756725 26.0466419,18.8241555 C27.4681755,19.5092319 28.7533846,20.3822283 29.9,21.4409465 Z M22.2,48.275 C24.5116794,48.275 26.3323022,47.462222 27.7393134,45.8133807 C29.1758003,44.1299976 29.9,41.9234516 29.9,39.15 C29.9,36.3275056 29.1760347,34.110362 27.7436368,32.4541519 C26.33702,30.8277513 24.5145577,30.025 22.2,30.025 C19.8862146,30.025 18.0506378,30.8396051 16.6181891,32.4924305 C15.1596827,34.1753225 14.425,36.3793706 14.425,39.15 C14.425,41.9206294 15.1596827,44.1246775 16.6181891,45.8075695 C18.0506378,47.4603949 19.8862146,48.275 22.2,48.275 Z M75.7541168,33.875 C75.6460871,32.4974505 75.1186903,31.4633764 74.1664184,30.7087459 C73.0397273,29.8158963 71.3425335,29.35 69.05,29.35 C67.4405848,29.35 65.6107258,29.613117 63.5630669,30.1430993 C61.5044636,30.6759143 59.429819,31.4523894 57.3388353,32.4735675 L56.3783067,32.9426629 L51.9356232,22.0626216 L52.8111971,21.6646335 C56.1672719,20.139145 59.3897865,19.0055331 62.479431,18.2650398 C65.5816334,17.5215367 68.797348,17.15 72.125,17.15 C77.9416263,17.15 82.516157,18.5039559 85.8139632,21.2432627 C89.1497206,24.0140934 90.8469056,27.9068432 90.9,32.85 L90.9,60.25 L75.775,60.25 L75.775,57.1821882 C72.9724518,59.6291675 69.2137168,60.85 64.55,60.85 C60.010008,60.85 56.3766577,59.6031307 53.7028245,57.0913481 C51.0198655,54.5709926 49.675,51.2427901 49.675,47.175 C49.675,43.0315099 51.1415497,39.7420526 54.0610299,37.3955546 C56.9314228,35.0885098 60.9830927,33.9271191 66.2,33.875 L75.7541168,33.875 Z M75.775,45.3924819 L75.775,43 L68.825,43 C65.5744098,43 64.2,44.026226 64.2,46.2 C64.2,47.3132534 64.5641957,48.1443666 65.3084422,48.7741137 C66.0870614,49.4329453 67.1961478,49.775 68.675,49.775 C70.486929,49.775 72.0472831,49.3403299 73.3800116,48.4740564 C74.6371089,47.6569432 75.422684,46.6387871 75.775,45.3924819 Z M105.425,15.25 C103.112366,15.25 101.166284,14.4715674 99.6488159,12.9254677 C98.1360155,11.3841239 97.375,9.43132945 97.375,7.125 C97.375,4.76774883 98.1365358,2.79925064 99.6553932,1.28039322 C101.172864,-0.237077767 103.116157,-1 105.425,-1 C107.733843,-1 109.677136,-0.237077767 111.194607,1.28039322 C112.713464,2.79925064 113.475,4.76774883 113.475,7.125 C113.475,9.43132945 112.713985,11.3841239 111.201184,12.9254677 C109.683716,14.4715674 107.737634,15.25 105.425,15.25 Z M113.175,17.675 L113.175,60.25 L97.9,60.25 L97.9,17.675 L113.175,17.675 Z M136.775,60.85 C133.225881,60.85 129.826205,60.3477751 126.579316,59.3427859 C123.316299,58.3328043 120.408658,56.8400424 117.862176,54.8652198 L117.220324,54.3674569 L122.287275,43.962111 L123.246064,44.6290948 C125.471791,46.1774261 127.802496,47.3729692 130.239932,48.2176252 C132.663802,49.0575803 134.941721,49.475 137.075,49.475 C138.219754,49.475 139.096121,49.2955032 139.706667,48.9606876 C140.170896,48.7061108 140.35,48.4230104 140.35,48 C140.35,47.4119143 140.026344,46.9659888 139.22329,46.5733844 C138.167124,46.0570366 136.457498,45.4750363 134.089195,44.8332878 C131.200791,43.971834 128.81155,43.1203491 126.917717,42.2758019 C124.925925,41.3875705 123.190691,40.0558792 121.719279,38.2901844 C120.185116,36.449189 119.425,34.0720993 119.425,31.2 C119.425,26.7903155 121.118897,23.2795772 124.475,20.7625 C127.760171,18.2986214 131.970482,17.075 137.075,17.075 C140.115871,17.075 143.118542,17.487384 146.080576,18.3116022 C149.043952,19.1361939 151.841025,20.3478292 154.469415,21.9454781 L155.267063,22.4303225 L149.876414,32.8522427 L148.985993,32.3858315 C143.866367,29.7041229 139.709838,28.375 136.55,28.375 C135.570038,28.375 134.821619,28.5469341 134.293978,28.8672875 C133.896098,29.1088575 133.725,29.4205005 133.725,29.925 C133.725,30.4041076 134.034049,30.8114906 134.822214,31.2055728 C135.850108,31.71952 137.545201,32.3006946 139.90627,32.9403715 C142.841883,33.8008095 145.290863,34.6509736 147.256419,35.493355 C149.327586,36.3809978 151.117477,37.7267805 152.617282,39.5211899 C154.177189,41.3875069 154.95,43.8025427 154.95,46.725 C154.95,51.1400038 153.21369,54.6536386 149.778313,57.1693087 C146.418624,59.6295535 142.074884,60.85 136.775,60.85 Z M174.245376,58.2317371 L157.039488,17.675 L172.973561,17.675 L181.895776,42.0208908 L189.849689,17.675 L205.31414,17.675 L204.781474,19.038808 L187.375935,63.6026839 C185.757683,67.5700099 183.568342,70.5374905 180.799518,72.4809918 C178.021814,74.4307262 174.596162,75.4 170.55,75.4 C168.191007,75.4 165.980522,75.0447434 163.922889,74.3324861 C161.864533,73.6199781 159.867604,72.5032741 157.933118,70.9870559 L157.237482,70.4418277 L163.847452,59.4549866 L164.744136,60.2100888 C165.620072,60.9477192 166.434475,61.4680322 167.18075,61.7753219 C167.908931,62.0751613 168.67953,62.225 169.5,62.225 C171.319186,62.225 172.603628,61.4148133 173.487783,59.6886473 L174.245376,58.2317371 Z" fill="#5A0EF8"></path>
            <path d="M234.45,61.225 C229.498144,61.225 225.130191,60.2658649 221.35793,58.3407111 C217.562077,56.4035172 214.618517,53.6307881 212.546209,50.03704 C210.480166,46.4541543 209.45,42.2943717 209.45,37.575 L209.45,5.675 L225.175,5.675 L225.175,37.575 C225.175,40.6252 226.057217,43.0230192 227.816,44.8268999 C229.57387,46.6298435 231.789383,47.525 234.525,47.525 C237.203064,47.525 239.322545,46.648356 240.953053,44.8838339 C242.595916,43.1059416 243.425,40.6868322 243.425,37.575 L243.425,5.675 L259.15,5.675 L259.15,37.575 C259.15,42.2905384 258.146788,46.4467009 256.134245,50.0274591 C254.113023,53.6236609 251.219273,56.3990293 247.472092,58.3381302 C243.748012,60.2652764 239.403317,61.225 234.45,61.225 Z M280.25,60.25 L264.525,60.25 L264.525,5.675 L280.25,5.675 L280.25,60.25 Z" fill="#2D3748"></path>
        </g>
    </g>
</svg>