<svg width="412" height="131.7" xmlns="http://www.w3.org/2000/svg" xml:space="preserve" version="1.1">

 <g>
  <title>Layer 1</title>
  <rect id="svg_6" height="92" width="315.00001" y="39.35" x="97.5" fill="#666666"/>
  <path id="svg_1" fill="#FFFFFF" d="m131.6,67l21.4,0l0,2.9c0.2,5.4 -1.9,10.7 -5.8,14.4c-3.8,3.7 -8.9,5.6 -15.2,5.6c-6.1,0.2 -12,-2.1 -16.4,-6.4c-4.2,-4.2 -6.6,-9.9 -6.4,-15.8c-0.1,-5.9 2.2,-11.6 6.4,-15.7c4.2,-4.3 10,-6.6 16,-6.5c3.8,0 7.6,0.9 10.9,2.7c3.2,1.7 5.9,4.3 7.7,7.4l-6.1,3.5c-1.2,-2.1 -2.9,-3.9 -5.1,-5c-2.3,-1.2 -4.9,-1.9 -7.5,-1.8c-4.1,-0.1 -8.2,1.5 -11.1,4.4c-2.9,2.9 -4.4,6.9 -4.3,11c-0.1,4.1 1.4,8.1 4.3,11c3.1,2.9 7.2,4.5 11.5,4.3c3.3,0.1 6.5,-0.8 9.2,-2.6c2.4,-1.7 4,-4.3 4.6,-7.2l-14.3,0l0,-6.2l0.2,0zm51.7,-4.1l0,-4.3l6.6,0l0,30.6l-6.6,0l0,-4.4c-2.5,3.5 -6.1,5.2 -10.7,5.2c-4.1,0.1 -8,-1.6 -10.8,-4.7c-6,-6.5 -6,-16.4 0,-22.9c2.8,-3 6.7,-4.7 10.8,-4.7c4.6,0 8.2,1.8 10.7,5.2zm-16.6,18c3.9,3.7 10,3.7 13.8,0c1.8,-1.9 2.8,-4.4 2.8,-7c0.1,-2.6 -0.9,-5.1 -2.8,-7c-3.9,-3.7 -10,-3.7 -13.8,0c-1.8,1.9 -2.8,4.4 -2.8,7c0,2.6 1,5.1 2.8,7zm64.3,-23.2c3.1,-0.1 6.2,1.1 8.4,3.4c2.1,2.2 3.2,5.3 3.2,9.1l0,19l-6.6,0l0,-18.6c0.1,-1.8 -0.5,-3.5 -1.6,-4.9c-1.1,-1.2 -2.7,-1.9 -4.3,-1.8c-1.9,-0.1 -3.7,0.6 -4.9,2c-1.2,1.3 -1.8,3.3 -1.8,6l0,17.1l-6.6,0l0,-18.4c0.1,-1.8 -0.4,-3.5 -1.5,-4.9c-1.1,-1.2 -2.6,-1.8 -4.3,-1.7c-1.9,-0.1 -3.7,0.7 -4.9,2.1c-1.4,1.7 -2,3.8 -1.9,6l0,17.1l-6.6,0l0,-30.7l6.6,0l0,3.7c1.9,-3 5.2,-4.7 8.8,-4.5c3.6,-0.2 7,1.7 8.7,4.8c2,-3.2 5.1,-4.8 9.3,-4.8l0,0zm48.3,19l-24.4,0c0.4,2.1 1.6,4 3.3,5.3c1.9,1.3 4.2,2 6.5,1.9c3.1,0.2 6.1,-1.3 7.9,-3.8l5.5,3.2c-3,4.4 -7.5,6.7 -13.4,6.7c-4.5,0.2 -8.8,-1.5 -12.1,-4.5c-6.1,-6.5 -6.1,-16.5 -0.1,-23c3,-3.1 7.3,-4.8 11.6,-4.7c4.2,-0.1 8.2,1.6 11,4.7c2.9,3.1 4.4,7.2 4.3,11.4c0.1,0.9 0,1.9 -0.1,2.8l0,0zm-24.5,-5.4l18,0c-0.3,-2.2 -1.4,-4.1 -3,-5.6c-1.6,-1.3 -3.6,-2 -5.7,-2c-2.2,-0.1 -4.4,0.6 -6.1,2c-1.7,1.4 -2.8,3.4 -3.2,5.6l0,0zm31,-25l16.8,0c5.5,-0.1 10.9,2.1 14.6,6.2c3.9,4.1 6,9.6 5.9,15.2c0.1,5.7 -2,11.1 -5.9,15.3c-3.8,4.1 -9.1,6.3 -14.6,6.2l-16.8,0l0,-42.9l0,0zm7,36.1l9.8,0c3.8,0.2 7.4,-1.4 9.9,-4.2c2.6,-2.9 4,-6.7 3.9,-10.5c0.1,-3.9 -1.2,-7.7 -3.9,-10.5c-2.5,-2.8 -6.1,-4.3 -9.9,-4.2l-9.8,0l0,29.4l0,0zm65.8,-5.8l-24.3,0c0.4,2.1 1.6,4 3.3,5.3c1.9,1.3 4.2,2 6.5,1.9c3.1,0.2 6.1,-1.3 7.9,-3.8l5.5,3.2c-3,4.4 -7.4,6.7 -13.4,6.7c-4.5,0.2 -8.8,-1.5 -12.1,-4.5c-6.1,-6.4 -6.1,-16.5 -0.1,-23c3,-3.1 7.3,-4.8 11.6,-4.7c4.2,-0.1 8.2,1.6 11,4.7c2.9,3.1 4.4,7.2 4.4,11.4c0,1.1 -0.1,2 -0.3,2.8l0,0zm-24.4,-5.3l18,0c-0.3,-2.2 -1.4,-4.1 -3,-5.6c-1.6,-1.3 -3.6,-2 -5.7,-2c-2.2,-0.1 -4.4,0.6 -6.1,2c-1.7,1.4 -2.8,3.3 -3.2,5.6l0,0zm42.8,10.5l8.5,-23.3l7.2,0l-11.9,30.6l-7.6,0l-11.9,-30.6l7.2,0l8.5,23.3l0,0z" class="st0"/>
  <path id="svg_2" fill="#b2b2b2" d="m223.1,113.7c0,0.8 0.5,1.5 1.1,1.8c1.1,0.6 2.2,1 3.4,1.3c1,0.2 2,0.5 2.9,0.8c0.9,0.3 1.8,0.8 2.6,1.3c0.9,0.5 1.6,1.3 2.1,2.2c1.4,3 0.6,6.6 -2,8.6c-1.9,1.4 -4.3,2.1 -6.7,2c-2.1,0.1 -4.2,-0.5 -6.1,-1.5c-1.6,-0.9 -2.9,-2.4 -3.7,-4.1l4.5,-2.6c0.8,2.3 2.6,3.4 5.3,3.4s4.1,-0.9 4.1,-2.7c0,-1.3 -1.5,-2.4 -4.6,-3.1c-1,-0.2 -2,-0.5 -2.9,-0.9c-0.9,-0.3 -1.8,-0.8 -2.6,-1.2c-0.9,-0.5 -1.6,-1.3 -2.1,-2.2c-0.5,-1 -0.8,-2 -0.7,-3.1c-0.1,-2.1 0.9,-4 2.5,-5.3c1.8,-1.4 4,-2.1 6.3,-2c1.8,0 3.7,0.4 5.3,1.3c1.5,0.9 2.8,2.1 3.6,3.7l-4.4,2.4c-0.7,-1.8 -2.6,-2.9 -4.5,-2.7c-0.9,0 -1.8,0.2 -2.5,0.7c-0.6,0.5 -0.9,1.2 -0.9,1.9l0,0zm33.6,6.2l0,-12.8l5.2,0l0,24l-5.2,0l0,-3.1c-1.6,2.5 -4.1,3.7 -7.4,3.7c-2.5,0.1 -4.9,-0.9 -6.7,-2.7c-1.8,-2 -2.7,-4.6 -2.5,-7.2l0,-14.8l5.2,0l0,14.2c-0.1,1.5 0.4,3 1.4,4.1c1.1,1 2.5,1.5 3.9,1.4c1.7,0.1 3.3,-0.6 4.5,-1.8c1.2,-1.3 1.7,-3.1 1.6,-5l0,0zm37.4,-13.4c2.5,-0.1 4.9,0.9 6.6,2.6c1.7,1.9 2.6,4.5 2.5,7.1l0,14.8l-5.2,0l0,-14.5c0.1,-1.4 -0.4,-2.8 -1.3,-3.8c-0.9,-0.9 -2.1,-1.5 -3.4,-1.4c-1.5,-0.1 -2.9,0.5 -3.8,1.6c-1,1.4 -1.5,3 -1.4,4.7l0,13.4l-5.2,0l0,-14.5c0.1,-1.4 -0.3,-2.8 -1.2,-3.9c-0.8,-0.9 -2.1,-1.4 -3.3,-1.4c-1.5,0 -2.9,0.5 -3.9,1.6c-1.1,1.3 -1.6,3 -1.5,4.7l0,13.5l-5.2,0l0,-24l5.2,0l0,2.9c1.5,-2.3 4.1,-3.6 6.9,-3.5c2.8,-0.1 5.4,1.3 6.8,3.8c1.6,-2.5 4.4,-4 7.4,-3.7l0,0zm40.7,0c2.5,-0.1 4.9,0.9 6.6,2.6c1.7,1.9 2.6,4.5 2.5,7.1l0,14.8l-5.2,0l0,-14.5c0.1,-1.4 -0.4,-2.8 -1.2,-3.8c-0.9,-0.9 -2.1,-1.5 -3.4,-1.4c-1.5,-0.1 -2.9,0.5 -3.8,1.6c-1,1.4 -1.5,3 -1.4,4.7l0,13.4l-5.2,0l0,-14.5c0.1,-1.4 -0.3,-2.8 -1.2,-3.9c-0.8,-0.9 -2.1,-1.4 -3.3,-1.4c-1.5,-0.1 -2.9,0.5 -3.9,1.6c-1.1,1.3 -1.6,3 -1.5,4.7l0,13.5l-5.2,0l0,-24l5.2,0l0,2.9c1.5,-2.3 4.1,-3.6 6.9,-3.5c2.8,-0.1 5.4,1.3 6.8,3.8c1.6,-2.5 4.4,-4 7.3,-3.7l0,0zm19.5,-4c-0.6,0.6 -1.4,1 -2.3,1c-1.8,0 -3.3,-1.4 -3.3,-3.2c0,0 0,-0.1 0,-0.1c0,-1.8 1.5,-3.3 3.3,-3.3c1.8,0 3.3,1.5 3.3,3.3c0.1,0.9 -0.3,1.8 -1,2.3l0,0zm0.3,28.5l-5.1,0l0,-24l5.2,0l-0.1,24l0,0zm19.4,-24l0,5l-5.9,0l0,11.5c-0.1,0.8 0.2,1.5 0.7,2.1c0.6,0.5 1.3,0.7 2,0.7c0.9,0.1 2,0 3.3,0l0,4.6c-4,0.5 -6.8,0.1 -8.5,-1s-2.6,-3.3 -2.6,-6.4l0,-11.5l-4.4,0l0,-5l4.4,0l0,-5.2l5.2,-1.5l0,6.7l5.8,0z" class="st1"/>
  <path id="svg_3" fill="#FFD600" clip-rule="evenodd" fill-rule="evenodd" d="m94.3,0l-90.5,0c-2.1,0 -3.8,1.7 -3.8,3.8l0,90.6c0,2.1 1.7,3.8 3.8,3.8l90.6,0c2.1,0 3.8,-1.7 3.8,-3.8l0,-90.6c-0.1,-2.1 -1.8,-3.8 -3.9,-3.8z" class="st2"/>
  <path id="svg_4" fill="#1A1A1A" d="m36.6,90c-6.8,0 -11.5,-2.7 -14.1,-8.2l7.3,-4.2c1.2,2.6 4,4.2 6.9,4c1.8,0.1 3.6,-0.4 5,-1.6c1.1,-1.1 1.8,-2.7 1.7,-4.3l0,-29.5l8.4,0l0,29.5c0,4.5 -1.4,8 -4.2,10.5c-3.1,2.6 -7,3.9 -11,3.8zm37.3,0c-3.8,0.1 -7.5,-0.9 -10.7,-2.8c-2.9,-1.8 -5,-4.6 -6.2,-7.8l7.2,-4.2c1.7,4.4 5,6.6 9.9,6.6c1.8,0.1 3.6,-0.3 5.1,-1.2c1.8,-1.2 2.3,-3.7 1.1,-5.6c-0.3,-0.6 -0.8,-1 -1.3,-1.3c-2.3,-1.2 -4.7,-2.1 -7.2,-2.8c-3.1,-0.9 -6.1,-2.2 -8.9,-4c-2.7,-2 -4,-4.9 -4,-8.8c-0.2,-3.6 1.4,-7 4.1,-9.2c2.8,-2.4 6.4,-3.6 10,-3.5c6.6,-0.2 12.6,3.6 15.3,9.6l-7.1,4.1c-1.7,-3.7 -4.5,-5.5 -8.3,-5.5c-1.5,-0.1 -2.9,0.3 -4.1,1.2c-1,0.7 -1.6,1.9 -1.5,3.1c0,1.3 0.6,2.5 1.7,3.3c2,1.2 4.2,2.1 6.5,2.7l2.9,1c0.5,0.2 1.4,0.5 2.8,1c1,0.3 1.9,0.7 2.7,1.3c1.6,0.9 3,2.2 4,3.8c1.1,1.8 1.7,3.9 1.6,6.1c0.1,3.7 -1.5,7.2 -4.3,9.4c-3,2.3 -6.7,3.4 -11.3,3.5l0,0z" class="st3"/>
  <path id="svg_5" fill="#FFD600" clip-rule="evenodd" fill-rule="evenodd" d="m398.6,116.8l13.4,6.6c-0.1,0.3 -0.3,0.6 -0.5,0.8c-4.1,7.1 -13.3,9.5 -20.4,5.4c-7.1,-4.1 -9.5,-13.3 -5.4,-20.4c4.1,-7.1 13.3,-9.5 20.4,-5.4c2.5,1.5 4.6,3.6 5.9,6.3l-13.4,6.7l0,0z" class="st2"/>
 </g>
</svg>