<?xml version="1.0" standalone="no"?>
<!DOCTYPE svg PUBLIC "-//W3C//DTD SVG 20010904//EN"
 "http://www.w3.org/TR/2001/REC-SVG-20010904/DTD/svg10.dtd">
<svg version="1.0" xmlns="http://www.w3.org/2000/svg"
 width="512.000000pt" height="512.000000pt" viewBox="0 0 512.000000 512.000000"
 preserveAspectRatio="xMidYMid meet">
<metadata>
Created by potrace 1.14, written by Peter Selinger 2001-2017
</metadata>
<g transform="translate(0.000000,512.000000) scale(0.100000,-0.100000)"
fill="#000000" stroke="none">
<path d="M2378 5065 c-2 -1 -34 -5 -73 -9 -38 -3 -81 -8 -95 -10 -14 -3 -54
-10 -90 -16 -216 -34 -453 -111 -669 -219 -717 -355 -1222 -1023 -1366 -1806
-41 -222 -51 -582 -21 -765 3 -14 10 -59 16 -100 6 -41 16 -91 20 -110 5 -19
11 -46 14 -60 3 -14 14 -56 26 -95 11 -38 22 -74 23 -80 39 -138 189 -468 246
-541 12 -15 21 -32 21 -40 0 -7 3 -14 8 -16 4 -1 31 -39 61 -83 216 -319 586
-640 931 -807 192 -93 384 -164 520 -193 8 -2 44 -10 80 -19 36 -8 88 -18 115
-22 28 -3 59 -8 70 -10 123 -27 535 -25 705 1 131 21 181 31 285 59 557 146
1048 485 1393 960 76 105 74 102 141 216 147 253 271 602 307 865 36 267 37
514 3 745 -16 109 -20 134 -31 175 -5 22 -12 51 -14 65 -8 45 -55 193 -94 301
-149 401 -433 791 -775 1064 -27 22 -54 44 -60 48 -23 19 -196 137 -201 137
-2 0 -23 12 -47 27 -23 15 -90 51 -150 80 -353 176 -723 261 -1133 261 -89 0
-164 -1 -166 -3z"/>
</g>
</svg>
