<?xml version="1.0" encoding="UTF-8"?>
<svg width="90px" height="48px" viewBox="0 0 90 48" version="1.1" xmlns="http://www.w3.org/2000/svg" xmlns:xlink="http://www.w3.org/1999/xlink">
    <!-- Generator: Sketch 51.3 (57544) - http://www.bohemiancoding.com/sketch -->
    <title>upgrad-logo</title>
    <desc>Created with Sketch.</desc>
    <defs></defs>
    <g id="upgrad-logo" stroke="none" stroke-width="1" fill="none" fill-rule="evenodd">
        <rect fill="#FFFFFF" opacity="0" x="0" y="0" width="90" height="48"></rect>
        <g transform="translate(-5.000000, -27.000000)" fill-rule="nonzero">
            <g id="Group" transform="translate(7.000000, 41.000000)" fill="#EE2C3C">
                <path d="M12.3813004,5.25042017 L12.3813004,17.1683193 L8.22109865,17.1683193 L8.22109865,15.687479 C7.37363229,16.8577311 6.15304933,17.5269748 4.40991031,17.5269748 C1.61973094,17.5269748 0.000964125561,15.9028571 0.000964125561,12.9171429 L0.000964125561,5.25042017 L4.16116592,5.25042017 L4.16116592,12.057479 C4.16116592,13.6335294 4.80809417,14.2787395 6.10387892,14.2787395 C7.47390135,14.2787395 8.22109865,13.5142857 8.22109865,11.9382353 L8.22109865,5.25042017 L12.3813004,5.25042017 Z" id="Shape"></path>
                <path d="M27.8506951,11.1978151 C27.8506951,12.582521 27.6019507,13.7056303 27.1777354,14.637395 C26.3061659,16.4288235 24.6372646,17.5029412 22.3455381,17.5029412 C20.7267713,17.5029412 19.4811211,16.9769748 18.6085874,15.8547899 L18.6085874,21.992605 L14.4483857,21.992605 L14.4483857,5.25042017 L18.5083184,5.25042017 L18.5083184,6.68319328 C19.4049552,5.46487395 20.6756726,4.89176471 22.344574,4.89176471 C24.6363004,4.89176471 26.3052018,5.96680672 27.1767713,7.78134454 C27.6019507,8.71403361 27.8506951,9.83621849 27.8506951,11.1978151 Z M23.4176457,11.1978151 C23.4176457,10.3621849 23.3173767,9.76504202 23.1187668,9.33428571 C22.7456502,8.54672269 21.9974888,8.14 20.9764798,8.14 C19.4068834,8.14 18.5603812,9.09487395 18.5603812,10.8622689 L18.5603812,11.507479 C18.5603812,13.2748739 19.4068834,14.2306723 20.9764798,14.2306723 C21.9984529,14.2306723 22.7456502,13.8248739 23.1187668,13.0363866 C23.3173767,12.6065546 23.4176457,12.0334454 23.4176457,11.1978151 Z" id="Shape"></path>
                <path d="M48.8021076,5.25042017 L52.9382063,5.25042017 L52.9382063,6.32546218 C53.5851345,5.32252101 54.2831614,4.91579832 55.2800673,4.91579832 C56.7744619,4.91579832 57.7212332,5.84756303 57.7212332,7.23226891 C57.7212332,8.56983193 56.7493946,9.5487395 55.3302018,9.5487395 C54.4576682,9.5487395 53.711435,9.11890756 53.3874888,8.47369748 C53.0384753,8.61697479 52.9632735,8.80831933 52.9632735,9.64394958 L52.9632735,17.167395 L48.8030717,17.167395 L48.8021076,5.25042017 Z" id="Shape"></path>
                <path d="M70.8892601,10.3141176 L70.8892601,17.1683193 L66.7290583,17.1683193 L66.7290583,15.7595798 C65.9076233,16.8586555 64.6359417,17.5029412 62.6180269,17.5029412 C60.6502466,17.5029412 59.1809193,16.8346218 58.5580942,15.4970588 C58.3083857,15.0191597 58.2090807,14.470084 58.2090807,13.8008403 C58.2090807,13.1556303 58.3083857,12.6305882 58.5079596,12.1767227 C59.4045964,10.3141176 61.8216592,9.88428571 64.8596188,9.88428571 L66.7280942,9.88428571 L66.7280942,9.69294118 C66.7280942,8.97655462 66.6779596,8.71403361 66.5285202,8.40344538 C66.2797758,7.87840336 65.7070852,7.61495798 64.8094843,7.61495798 C63.8386099,7.61495798 63.2900224,7.85436975 63.041278,8.37941176 C62.9419731,8.61789916 62.9169058,8.78521008 62.8918386,9.09579832 L58.6573991,9.09579832 C58.6824664,8.45058824 58.8068386,7.90151261 59.0305157,7.42453782 C59.8529148,5.68117647 61.9701345,4.89268908 64.7603139,4.89268908 C67.7741704,4.89268908 69.5433408,5.65714286 70.3657399,7.37647059 C70.7147534,8.16495798 70.8892601,9.14386555 70.8892601,10.3141176 Z M66.504417,13.5863866 C66.6789238,13.2517647 66.7290583,12.9180672 66.7290583,12.2728571 L66.7290583,12.1055462 L65.1343946,12.1055462 C63.9388789,12.1055462 62.9670404,12.2247899 62.6932287,12.8459664 C62.6180269,12.9892437 62.5688565,13.1565546 62.5688565,13.3719328 C62.5688565,13.5873109 62.5939238,13.7536975 62.6932287,13.945042 C62.9429372,14.4710084 63.5898655,14.6614286 64.3380269,14.6614286 C65.4583408,14.6605042 66.181435,14.2787395 66.504417,13.5863866 Z" id="Shape"></path>
                <path d="M86,0.306890756 L86,17.1683193 L81.9400673,17.1683193 L81.9400673,15.7355462 C81.0434305,16.9298319 79.7977803,17.5029412 78.1038117,17.5029412 C75.8120852,17.5029412 74.1431839,16.4519328 73.2716143,14.637395 C72.8473991,13.7056303 72.5986547,12.5834454 72.5986547,11.1978151 C72.5986547,9.83621849 72.8473991,8.71403361 73.2716143,7.78226891 C74.1190807,5.96680672 75.8120852,4.89268908 78.1038117,4.89268908 C79.7225785,4.89268908 80.9441256,5.41773109 81.8407623,6.54084034 L81.8407623,0.306890756 L86,0.306890756 Z M81.8899327,10.8631933 C81.8899327,9.09579832 81.0424664,8.14092437 79.4738341,8.14092437 C78.451861,8.14092437 77.7056278,8.54672269 77.3315471,9.33521008 C77.1329372,9.76504202 77.0326682,10.3621849 77.0326682,11.1987395 C77.0326682,12.0584034 77.1319731,12.6315126 77.3315471,13.0853782 C77.7056278,13.8729412 78.4528251,14.2796639 79.4738341,14.2796639 C81.0434305,14.2796639 81.8899327,13.3247899 81.8899327,11.557395 L81.8899327,10.8631933 Z" id="Shape"></path>
                <path d="M39.4009193,8.19915966 L39.4009193,11.2736134 L42.0831166,11.2736134 L41.9828475,11.6747899 C41.648296,13.0095798 39.9832511,13.9071429 38.638296,13.9071429 C36.7669283,13.9071429 34.3440807,13.0428571 34.3440807,8.92478992 C34.3440807,5.51571429 35.9040359,3.88512605 38.2892825,3.88512605 C39.5937444,3.88512605 40.5993274,4.18092437 41.2038341,5.05168067 C41.4554709,5.43436975 41.6887892,5.95848739 41.7128924,6.39478992 L46.4747085,6.39478992 C46.4747085,6.39478992 46.5875112,4.27798319 44.7923094,2.43294118 C44.7633857,2.40336134 44.735426,2.37747899 44.7074664,2.3497479 C43.2603139,0.84394958 41.0833184,0.00647058824 38.3885874,0.00647058824 C32.8901794,0.00647058824 29.3373767,3.51630252 29.3373767,8.94789916 C29.3373767,15.229916 33.8379148,17.4594958 37.6915247,17.4594958 C39.8540583,17.4594958 41.8025561,16.8401681 42.9865022,15.6209244 L43.0424215,17.1683193 L46.7687668,17.1683193 L46.7687668,17.0527731 L46.7687668,14.4053782 L46.7687668,8.19915966 L39.4009193,8.19915966 Z" id="Shape"></path>
            </g>
        </g>
    </g>
</svg>
