<?xml version="1.0" encoding="utf-8"?>
<!-- Generator: Adobe Illustrator 23.0.5, SVG Export Plug-In . SVG Version: 6.00 Build 0)  -->
<svg version="1.1" id="Layer_1" xmlns="http://www.w3.org/2000/svg" xmlns:xlink="http://www.w3.org/1999/xlink" x="0px" y="0px"
	 viewBox="0 0 418.8 106.8" style="enable-background:new 0 0 418.8 106.8;" xml:space="preserve">
<style type="text/css">
	.st0{fill-rule:evenodd;clip-rule:evenodd;fill:#FFFFFF;}
	.st1{fill:#1453a2;}
	.st2{fill:#FFFFFF;}
</style>
<g>
	<path class="st0" d="M5.7,0h95.5c3.1,0,5.7,2.6,5.7,5.7v95.5c0,3.1-2.6,5.7-5.7,5.7H5.7c-3.1,0-5.7-2.6-5.7-5.7V5.7
		C0,2.6,2.6,0,5.7,0"/>
	<g>
		<path class="st1" d="M29.7,59.7H16.1v-9.9h39.6v9.9H42.2V94H29.7V59.7z"/>
	</g>
	<g>
		<path class="st1" d="M67,93.6c-3.4-0.9-6.1-2.1-8.2-3.5l4.1-9.2c2,1.3,4.3,2.4,6.9,3.2c2.6,0.8,5.2,1.2,7.7,1.2
			c4.8,0,7.2-1.2,7.2-3.6c0-1.3-0.7-2.2-2.1-2.8c-1.4-0.6-3.6-1.3-6.6-1.9c-3.3-0.7-6.1-1.5-8.3-2.3c-2.2-0.8-4.2-2.1-5.8-4
			c-1.6-1.8-2.4-4.3-2.4-7.3c0-2.7,0.7-5.1,2.2-7.3c1.5-2.2,3.7-3.9,6.6-5.2c2.9-1.3,6.5-1.9,10.8-1.9c2.9,0,5.8,0.3,8.6,1
			c2.8,0.7,5.3,1.6,7.5,2.9L91.3,62c-4.2-2.3-8.3-3.4-12.3-3.4c-2.5,0-4.3,0.4-5.4,1.1c-1.1,0.7-1.7,1.7-1.7,2.9
			c0,1.2,0.7,2.1,2,2.7c1.3,0.6,3.5,1.2,6.5,1.8c3.4,0.7,6.2,1.5,8.4,2.3c2.2,0.8,4.1,2.1,5.8,3.9c1.6,1.8,2.4,4.2,2.4,7.3
			c0,2.7-0.7,5.1-2.2,7.2c-1.5,2.1-3.7,3.9-6.6,5.2c-3,1.3-6.5,1.9-10.7,1.9C73.8,94.9,70.3,94.5,67,93.6z"/>
	</g>
	<g>
		<path class="st2" d="M131.9,91.7c-3.6-2-6.4-4.7-8.5-8.1c-2-3.5-3.1-7.4-3.1-11.7c0-4.3,1-8.2,3.1-11.7c2.1-3.5,4.9-6.2,8.5-8.1
			c3.6-2,7.6-2.9,12.1-2.9c3.6,0,6.9,0.6,9.9,1.9c3,1.3,5.5,3.1,7.6,5.5l-5.3,5c-3.2-3.5-7.1-5.2-11.8-5.2c-3,0-5.8,0.7-8.2,2
			c-2.4,1.3-4.3,3.2-5.6,5.5c-1.3,2.4-2,5-2,8c0,3,0.7,5.7,2,8c1.3,2.4,3.2,4.2,5.6,5.5c2.4,1.3,5.1,2,8.2,2c4.7,0,8.6-1.7,11.8-5.2
			l5.3,5.1c-2.1,2.4-4.6,4.2-7.6,5.5c-3,1.3-6.3,1.9-10,1.9C139.5,94.7,135.5,93.7,131.9,91.7z"/>
	</g>
	<g>
		<path class="st2" d="M174.1,92.3c-2.7-1.5-4.9-3.5-6.4-6.2c-1.5-2.6-2.3-5.6-2.3-8.9c0-3.3,0.8-6.3,2.3-8.9
			c1.5-2.6,3.7-4.7,6.4-6.1c2.7-1.5,5.8-2.2,9.2-2.2c3.5,0,6.6,0.7,9.3,2.2c2.7,1.5,4.9,3.5,6.4,6.1c1.5,2.6,2.3,5.6,2.3,8.9
			c0,3.3-0.8,6.3-2.3,8.9c-1.5,2.6-3.7,4.7-6.4,6.2c-2.7,1.5-5.8,2.2-9.3,2.2C179.9,94.5,176.8,93.7,174.1,92.3z M190.5,84.8
			c1.9-1.9,2.8-4.5,2.8-7.7s-0.9-5.7-2.8-7.7c-1.9-1.9-4.3-2.9-7.2-2.9c-2.9,0-5.3,1-7.2,2.9c-1.9,1.9-2.8,4.5-2.8,7.7
			s0.9,5.7,2.8,7.7c1.9,1.9,4.3,2.9,7.2,2.9C186.2,87.7,188.6,86.7,190.5,84.8z"/>
	</g>
	<g>
		<path class="st2" d="M236.9,63.6c2.6,2.5,3.9,6.2,3.9,11.1V94h-7.9V75.7c0-3-0.7-5.2-2.1-6.7c-1.4-1.5-3.4-2.2-5.9-2.2
			c-2.9,0-5.2,0.9-6.9,2.6c-1.7,1.7-2.5,4.3-2.5,7.6V94h-7.9V60.3h7.5v4.4c1.3-1.6,3-2.7,4.9-3.5c2-0.8,4.2-1.2,6.7-1.2
			C230.9,59.9,234.3,61.1,236.9,63.6z"/>
	</g>
	<g>
		<path class="st2" d="M284,60.3v28.6c0,11.9-6.1,17.8-18.2,17.8c-3.2,0-6.3-0.4-9.2-1.2c-2.9-0.8-5.3-2-7.2-3.6l3.5-5.9
			c1.5,1.2,3.3,2.2,5.6,2.9c2.3,0.7,4.5,1.1,6.9,1.1c3.7,0,6.4-0.8,8.2-2.5c1.7-1.7,2.6-4.3,2.6-7.7V88c-1.3,1.5-3,2.6-4.9,3.4
			c-1.9,0.8-4.1,1.1-6.4,1.1c-3.2,0-6.1-0.7-8.7-2.1c-2.6-1.4-4.6-3.3-6.1-5.8c-1.5-2.5-2.2-5.3-2.2-8.5c0-3.2,0.7-6,2.2-8.5
			c1.5-2.5,3.5-4.4,6.1-5.7c2.6-1.3,5.5-2,8.7-2c2.4,0,4.7,0.4,6.7,1.2s3.7,2,5,3.7v-4.5H284z M273.3,83.1c1.9-1.8,2.9-4.1,2.9-7
			c0-2.8-1-5.1-2.9-6.9c-1.9-1.8-4.4-2.7-7.4-2.7c-3,0-5.5,0.9-7.4,2.7s-2.9,4.1-2.9,6.9c0,2.9,1,5.2,2.9,7c1.9,1.8,4.4,2.7,7.4,2.7
			C268.9,85.8,271.4,84.9,273.3,83.1z"/>
	</g>
	<g>
		<path class="st2" d="M313,59.9v7.5c-0.7-0.1-1.3-0.2-1.8-0.2c-3.1,0-5.5,0.9-7.2,2.7c-1.7,1.8-2.6,4.4-2.6,7.7V94h-7.9V60.3h7.5
			v4.9C303.3,61.7,307.3,59.9,313,59.9z"/>
	</g>
	<g>
		<path class="st2" d="M351.1,79.7h-26.5c0.5,2.5,1.7,4.5,3.6,5.9c2,1.5,4.4,2.2,7.3,2.2c3.7,0,6.8-1.2,9.2-3.7l4.2,4.9
			c-1.5,1.8-3.4,3.2-5.8,4.1c-2.3,0.9-4.9,1.4-7.8,1.4c-3.7,0-7-0.7-9.8-2.2c-2.8-1.5-5-3.5-6.5-6.2c-1.5-2.6-2.3-5.6-2.3-8.9
			c0-3.3,0.7-6.2,2.2-8.9c1.5-2.6,3.6-4.7,6.2-6.2c2.7-1.5,5.6-2.2,9-2.2c3.3,0,6.2,0.7,8.8,2.2c2.6,1.5,4.6,3.5,6.1,6.1
			c1.5,2.6,2.2,5.7,2.2,9.1C351.2,77.9,351.1,78.7,351.1,79.7z M327.7,68.4c-1.7,1.5-2.8,3.5-3.2,6h19.2c-0.3-2.4-1.4-4.4-3.1-5.9
			s-3.9-2.3-6.4-2.3C331.6,66.2,329.4,67,327.7,68.4z"/>
	</g>
	<g>
		<path class="st2" d="M361.7,93.4c-2.6-0.7-4.7-1.6-6.3-2.7l3-6c1.5,1,3.3,1.8,5.5,2.4c2.1,0.6,4.2,0.9,6.3,0.9
			c4.7,0,7.1-1.2,7.1-3.7c0-1.2-0.6-2-1.8-2.5c-1.2-0.5-3.1-0.9-5.8-1.3c-2.8-0.4-5-0.9-6.8-1.5c-1.8-0.5-3.3-1.5-4.6-2.9
			c-1.3-1.4-1.9-3.3-1.9-5.7c0-3.2,1.3-5.8,4-7.7c2.7-1.9,6.3-2.9,10.8-2.9c2.3,0,4.6,0.3,7,0.8c2.3,0.5,4.2,1.2,5.7,2.1l-3,6
			c-2.9-1.7-6.1-2.5-9.7-2.5c-2.3,0-4.1,0.3-5.3,1s-1.8,1.6-1.8,2.8c0,1.3,0.6,2.2,1.9,2.7c1.3,0.5,3.3,1,6,1.5
			c2.7,0.4,4.9,0.9,6.6,1.5c1.7,0.5,3.2,1.5,4.5,2.8c1.2,1.3,1.9,3.2,1.9,5.6c0,3.2-1.4,5.7-4.1,7.6c-2.7,1.9-6.5,2.8-11.2,2.8
			C367,94.5,364.4,94.1,361.7,93.4z"/>
	</g>
	<g>
		<path class="st2" d="M395.5,93.4c-2.6-0.7-4.7-1.6-6.3-2.7l3-6c1.5,1,3.3,1.8,5.5,2.4c2.1,0.6,4.2,0.9,6.3,0.9
			c4.7,0,7.1-1.2,7.1-3.7c0-1.2-0.6-2-1.8-2.5c-1.2-0.5-3.1-0.9-5.8-1.3c-2.8-0.4-5-0.9-6.8-1.5c-1.8-0.5-3.3-1.5-4.6-2.9
			c-1.3-1.4-1.9-3.3-1.9-5.7c0-3.2,1.3-5.8,4-7.7c2.7-1.9,6.3-2.9,10.8-2.9c2.3,0,4.6,0.3,7,0.8c2.3,0.5,4.2,1.2,5.7,2.1l-3,6
			c-2.9-1.7-6.1-2.5-9.7-2.5c-2.3,0-4.1,0.3-5.3,1s-1.8,1.6-1.8,2.8c0,1.3,0.6,2.2,1.9,2.7c1.3,0.5,3.3,1,6,1.5
			c2.7,0.4,4.9,0.9,6.6,1.5c1.7,0.5,3.2,1.5,4.5,2.8c1.2,1.3,1.9,3.2,1.9,5.6c0,3.2-1.4,5.7-4.1,7.6c-2.7,1.9-6.5,2.8-11.2,2.8
			C400.8,94.5,398.1,94.1,395.5,93.4z"/>
	</g>
</g>
</svg>
