<svg xmlns="http://www.w3.org/2000/svg" width="1em" height="1em" fill="none" viewBox="0 0 105 33" class="w-[103px] h-[33px]  undefined"><path fill="#3970FD" d="M30.232 11.397c.912-2.87.363-8.597-1.405-10.71a.53.53 0 0 0-.856.068l-2.178 3.453a1.665 1.665 0 0 1-2.239.368 14.85 14.85 0 0 0-8.22-2.47 14.85 14.85 0 0 0-8.222 2.47 1.67 1.67 0 0 1-2.238-.368L2.695.755A.532.532 0 0 0 1.84.686C.07 2.804-.478 8.53.435 11.396c.303.955.385 1.963.207 2.943-.178.972-.357 2.146-.357 2.964C.285 25.697 7.023 32.5 15.33 32.5c8.31 0 15.044-6.806 15.044-15.197 0-.818-.178-1.992-.356-2.964a6.155 6.155 0 0 1 .214-2.942ZM15.33 29.107c-6.424 0-11.647-5.279-11.647-11.768a11.774 11.774 0 0 1 6.67-10.63 11.43 11.43 0 0 1 4.98-1.132c1.783 0 3.47.403 4.98 1.134a11.779 11.779 0 0 1 6.671 10.631c-.004 6.486-5.23 11.766-11.654 11.766Z"></path><path fill="#3970FD" d="M20.377 21.87 17.4 16.653l-2.552-4.346a.333.333 0 0 0-.29-.166H12.12a.338.338 0 0 0-.289.511l2.443 4.146-3.277 5.049a.343.343 0 0 0-.014.345.334.334 0 0 0 .296.177h2.456a.331.331 0 0 0 .282-.155l1.772-2.795 1.59 2.784c.06.104.17.17.288.17h2.421a.327.327 0 0 0 .289-.17c.06-.1.06-.23 0-.335Z"></path><path fill="#000" d="M43.293 8.5h3.111v17.063h-3.111v-7.27h-3.515v7.274h-3.111V8.5h3.111v7.41h3.515V8.5ZM56.002 25.567l-.65-3.544h-3.733l-.596 3.544H47.91l3.433-17.064h4.19l3.597 17.064H56Zm-3.976-5.899h2.893l-1.485-8.167-1.408 8.167ZM66.06 22.455v-3.651c0-.29-.053-.483-.16-.583-.107-.1-.307-.15-.597-.15h-2.19c-1.857 0-2.785-.9-2.785-2.705V11.18c0-1.786.971-2.676 2.918-2.676h2.975c1.947 0 2.919.894 2.919 2.676v2.38h-3.136v-1.947c0-.29-.054-.483-.161-.583-.107-.1-.308-.15-.597-.15h-1.028c-.308 0-.515.05-.622.15-.107.1-.16.293-.16.583v3.433c0 .29.053.482.16.582.107.1.314.15.622.15h2.135c1.894 0 2.84.883 2.84 2.651v4.463c0 1.786-.982 2.676-2.947 2.676h-2.921c-1.965 0-2.947-.894-2.947-2.676v-2.355h3.107v1.919c0 .29.054.482.161.582.107.1.314.15.621.15h1.03c.288 0 .485-.05.596-.15.11-.1.168-.293.168-.582ZM77.494 8.5h3.108v14.387c0 1.787-.982 2.676-2.947 2.676h-3.297c-1.964 0-2.947-.893-2.947-2.676V8.5h3.111v13.955c0 .29.054.482.161.582.107.1.307.15.597.15h1.432c.307 0 .514-.05.622-.15.107-.1.16-.293.16-.582V8.5ZM86.282 18.914v6.653h-3.108V8.5h6.272c1.965 0 2.947.893 2.947 2.676v5.059c0 1.479-.657 2.343-1.975 2.597l2.84 6.735h-3.354l-2.597-6.653h-1.025Zm0-8.035v5.735h2.243c.29 0 .486-.05.596-.15.108-.1.161-.293.161-.583v-4.27c0-.289-.053-.482-.16-.582-.108-.1-.308-.15-.597-.15h-2.243ZM101.801 25.567l-.65-3.544h-3.732l-.597 3.544h-3.107l3.432-17.064h4.19l3.597 17.064h-3.133Zm-3.972-5.899h2.894l-1.486-8.167-1.407 8.167Z"></path></svg>
