<svg width="165" height="25" viewBox="0 0 165 25" fill="none" xmlns="http://www.w3.org/2000/svg">
<path d="M54.6758 18.4746C55.1439 18.0299 55.6822 17.1639 55.612 15.8298C55.4716 12.9511 52.663 12.6234 50.7907 12.3893C48.4502 12.1319 48.0757 11.8744 48.0523 11.1723C48.0523 10.2829 49.2694 9.83824 50.3694 9.88504C52.4524 9.95526 54.3248 10.6574 54.3248 10.6574L55.0737 8.34034C54.9801 8.31693 52.8737 7.6616 50.4396 7.59139C47.9119 7.52117 45.5948 8.69141 45.665 11.2191C45.7119 14.2617 48.614 14.5894 50.5098 14.8C52.663 15.0575 53.2482 15.2915 53.295 15.9469C53.3184 16.4384 53.295 17.749 50.2524 17.515C48.2396 17.3511 46.4374 16.4384 46.414 16.4149L45.4076 18.5214C45.5246 18.5682 47.7247 19.6448 50.2992 19.715C51.6098 19.7618 53.4822 19.6916 54.6758 18.4746ZM63.4233 19.6916C65.717 19.6916 67.9873 18.7554 67.9873 18.7554L67.3787 16.6724C67.3787 16.6724 65.3659 17.4682 63.517 17.4682C61.1531 17.4682 59.9595 15.9703 59.9595 14.5426H68.6192L68.6197 13.1568C68.6249 12.7287 68.5772 7.59139 63.3063 7.59139C58.4209 7.59139 57.4835 11.8117 57.4558 13.5278L57.4551 13.6064C57.4551 15.1745 58.0637 19.6916 63.4233 19.6916ZM66.2553 12.4596H59.9829C59.9829 12.4596 60.2637 9.90845 63.3063 9.90845C66.4191 9.90845 66.2553 12.4596 66.2553 12.4596ZM73.973 19.5044V12.1787C73.973 11.3595 75.0262 10.2595 76.0794 10.2595H80.1518V7.80203H76.4305C74.3241 7.80203 73.7858 9.72121 73.7858 10.0723L73.6453 7.80203H71.3517V19.5044H73.973ZM89.3674 19.5044L93.0888 7.80203H90.5845L87.4951 17.2341L84.7333 7.80203H82.0886L85.6461 19.5044H89.3674ZM100.432 19.6916C102.726 19.6916 104.996 18.7554 104.996 18.7554L104.387 16.6724C104.387 16.6724 102.375 17.4682 100.526 17.4682C98.1617 17.4682 96.9681 15.9703 96.9681 14.5426H105.628L105.628 13.1568C105.634 12.7287 105.586 7.59139 100.315 7.59139C95.4295 7.59139 94.4921 11.8117 94.4644 13.5278L94.4638 13.6064C94.4638 15.1745 95.0723 19.6916 100.432 19.6916ZM103.264 12.4596H96.9915C96.9915 12.4596 97.2724 9.90845 100.315 9.90845C103.428 9.90845 103.264 12.4596 103.264 12.4596ZM110.982 19.5044V12.1787C110.982 11.3595 112.035 10.2595 113.088 10.2595H117.16V7.80203H113.439C111.333 7.80203 110.794 9.72121 110.794 10.0723L110.654 7.80203H108.36V19.5044H110.982ZM128.248 19.5044V17.0469H123.427V3.12109H117.178V5.27432H120.923V19.5044H128.248ZM135.802 19.6916C138.096 19.6916 140.366 18.7554 140.366 18.7554L139.758 16.6724C139.758 16.6724 137.745 17.4682 135.896 17.4682C133.532 17.4682 132.338 15.9703 132.338 14.5426H140.998L140.999 13.1568C141.004 12.7287 140.956 7.59139 135.685 7.59139C130.8 7.59139 129.862 11.8117 129.835 13.5278L129.834 13.6064C129.834 15.1745 130.443 19.6916 135.802 19.6916ZM138.634 12.4596H132.362C132.362 12.4596 132.643 9.90845 135.685 9.90845C138.798 9.90845 138.634 12.4596 138.634 12.4596ZM152.039 18.4746C152.507 18.0299 153.046 17.1639 152.975 15.8298C152.835 12.9511 150.026 12.6234 148.154 12.3893C145.814 12.1319 145.439 11.8744 145.416 11.1723C145.416 10.2829 146.633 9.83824 147.733 9.88504C149.816 9.95526 151.688 10.6574 151.688 10.6574L152.437 8.34034C152.344 8.31693 150.237 7.6616 147.803 7.59139C145.275 7.52117 142.958 8.69141 143.028 11.2191C143.075 14.2617 145.977 14.5894 147.873 14.8C150.026 15.0575 150.612 15.2915 150.658 15.9469C150.682 16.4384 150.658 17.749 147.616 17.515C145.603 17.3511 143.801 16.4384 143.777 16.4149L142.771 18.5214C142.888 18.5682 145.088 19.6448 147.663 19.715C148.973 19.7618 150.846 19.6916 152.039 18.4746ZM164.058 18.4746C164.526 18.0299 165.064 17.1639 164.994 15.8298C164.853 12.9511 162.045 12.6234 160.172 12.3893C157.832 12.1319 157.457 11.8744 157.434 11.1723C157.434 10.2829 158.651 9.83824 159.751 9.88504C161.834 9.95526 163.707 10.6574 163.707 10.6574L164.455 8.34034C164.362 8.31693 162.255 7.6616 159.821 7.59139C157.294 7.52117 154.977 8.69141 155.047 11.2191C155.094 14.2617 157.996 14.5894 159.892 14.8C162.045 15.0575 162.63 15.2915 162.677 15.9469C162.7 16.4384 162.677 17.749 159.634 17.515C157.621 17.3511 155.819 16.4384 155.796 16.4149L154.789 18.5214C154.906 18.5682 157.106 19.6448 159.681 19.715C160.992 19.7618 162.864 19.6916 164.058 18.4746Z" fill="white"/>
<path d="M9.9305 5.20104L11.7023 0H0V5.20104H9.9305ZM30.5561 5.20104V0H17.2874L15.6031 5.20104H30.5561ZM6.89264 14.3029L8.45169 9.10182H0V14.3029H6.89264ZM30.5561 14.3029V9.10182H13.9318L12.3525 14.3029H30.5561ZM3.65698 24.0548L5.20104 18.8538H0V24.0548H3.65698ZM30.5561 24.0548V18.8538H10.8032L9.10182 24.0548H30.5561Z" fill="#FD5750"/>
</svg>
